<?xml version="1.0" encoding="utf-8" standalone="no"?>
<!DOCTYPE svg PUBLIC "-//W3C//DTD SVG 1.1//EN"
  "http://www.w3.org/Graphics/SVG/1.1/DTD/svg11.dtd">
<svg xmlns:xlink="http://www.w3.org/1999/xlink" width="360pt" height="360pt" viewBox="0 0 360 360" xmlns="http://www.w3.org/2000/svg" version="1.1">
 <metadata>
  <rdf:RDF xmlns:dc="http://purl.org/dc/elements/1.1/" xmlns:cc="http://creativecommons.org/ns#" xmlns:rdf="http://www.w3.org/1999/02/22-rdf-syntax-ns#">
   <cc:Work>
    <dc:type rdf:resource="http://purl.org/dc/dcmitype/StillImage"/>
    <dc:date>2023-01-23T09:59:57.715233</dc:date>
    <dc:format>image/svg+xml</dc:format>
    <dc:creator>
     <cc:Agent>
      <dc:title>Matplotlib v3.5.2, https://matplotlib.org/</dc:title>
     </cc:Agent>
    </dc:creator>
   </cc:Work>
  </rdf:RDF>
 </metadata>
 <defs>
  <style type="text/css">*{stroke-linejoin: round; stroke-linecap: butt}</style>
 </defs>
 <g id="figure_1">
  <g id="patch_1">
   <path d="M 0 360 
L 360 360 
L 360 0 
L 0 0 
z
" style="fill: #ffffff"/>
  </g>
  <g id="axes_1">
   <g id="patch_2">
    <path d="M 54 314.728 
L 349.2 314.728 
L 349.2 36 
L 54 36 
z
" style="fill: #ececec"/>
   </g>
   <g id="matplotlib.axis_1">
    <g id="xtick_1">
     <g id="line2d_1">
      <path d="M 100.921282 314.728 
L 100.921282 36 
" clip-path="url(#p296dc3f746)" style="fill: none; stroke: #ffffff; stroke-width: 0.8; stroke-linecap: round"/>
     </g>
     <g id="text_1">
      <!-- $\mathdefault{10^{3}}$ -->
      <g style="fill: #262626" transform="translate(92.121282 329.326437)scale(0.1 -0.1)">
       <defs>
        <path id="DejaVuSans-31" d="M 794 531 
L 1825 531 
L 1825 4091 
L 703 3866 
L 703 4441 
L 1819 4666 
L 2450 4666 
L 2450 531 
L 3481 531 
L 3481 0 
L 794 0 
L 794 531 
z
" transform="scale(0.015625)"/>
        <path id="DejaVuSans-30" d="M 2034 4250 
Q 1547 4250 1301 3770 
Q 1056 3291 1056 2328 
Q 1056 1369 1301 889 
Q 1547 409 2034 409 
Q 2525 409 2770 889 
Q 3016 1369 3016 2328 
Q 3016 3291 2770 3770 
Q 2525 4250 2034 4250 
z
M 2034 4750 
Q 2819 4750 3233 4129 
Q 3647 3509 3647 2328 
Q 3647 1150 3233 529 
Q 2819 -91 2034 -91 
Q 1250 -91 836 529 
Q 422 1150 422 2328 
Q 422 3509 836 4129 
Q 1250 4750 2034 4750 
z
" transform="scale(0.015625)"/>
        <path id="DejaVuSans-33" d="M 2597 2516 
Q 3050 2419 3304 2112 
Q 3559 1806 3559 1356 
Q 3559 666 3084 287 
Q 2609 -91 1734 -91 
Q 1441 -91 1130 -33 
Q 819 25 488 141 
L 488 750 
Q 750 597 1062 519 
Q 1375 441 1716 441 
Q 2309 441 2620 675 
Q 2931 909 2931 1356 
Q 2931 1769 2642 2001 
Q 2353 2234 1838 2234 
L 1294 2234 
L 1294 2753 
L 1863 2753 
Q 2328 2753 2575 2939 
Q 2822 3125 2822 3475 
Q 2822 3834 2567 4026 
Q 2313 4219 1838 4219 
Q 1578 4219 1281 4162 
Q 984 4106 628 3988 
L 628 4550 
Q 988 4650 1302 4700 
Q 1616 4750 1894 4750 
Q 2613 4750 3031 4423 
Q 3450 4097 3450 3541 
Q 3450 3153 3228 2886 
Q 3006 2619 2597 2516 
z
" transform="scale(0.015625)"/>
       </defs>
       <use xlink:href="#DejaVuSans-31" transform="translate(0 0.765625)"/>
       <use xlink:href="#DejaVuSans-30" transform="translate(63.623047 0.765625)"/>
       <use xlink:href="#DejaVuSans-33" transform="translate(128.203125 39.046875)scale(0.7)"/>
      </g>
     </g>
    </g>
    <g id="xtick_2">
     <g id="line2d_2">
      <path d="M 159.497469 314.728 
L 159.497469 36 
" clip-path="url(#p296dc3f746)" style="fill: none; stroke: #ffffff; stroke-width: 0.8; stroke-linecap: round"/>
     </g>
     <g id="text_2">
      <!-- $\mathdefault{10^{5}}$ -->
      <g style="fill: #262626" transform="translate(150.697469 329.326437)scale(0.1 -0.1)">
       <defs>
        <path id="DejaVuSans-35" d="M 691 4666 
L 3169 4666 
L 3169 4134 
L 1269 4134 
L 1269 2991 
Q 1406 3038 1543 3061 
Q 1681 3084 1819 3084 
Q 2600 3084 3056 2656 
Q 3513 2228 3513 1497 
Q 3513 744 3044 326 
Q 2575 -91 1722 -91 
Q 1428 -91 1123 -41 
Q 819 9 494 109 
L 494 744 
Q 775 591 1075 516 
Q 1375 441 1709 441 
Q 2250 441 2565 725 
Q 2881 1009 2881 1497 
Q 2881 1984 2565 2268 
Q 2250 2553 1709 2553 
Q 1456 2553 1204 2497 
Q 953 2441 691 2322 
L 691 4666 
z
" transform="scale(0.015625)"/>
       </defs>
       <use xlink:href="#DejaVuSans-31" transform="translate(0 0.684375)"/>
       <use xlink:href="#DejaVuSans-30" transform="translate(63.623047 0.684375)"/>
       <use xlink:href="#DejaVuSans-35" transform="translate(128.203125 38.965625)scale(0.7)"/>
      </g>
     </g>
    </g>
    <g id="xtick_3">
     <g id="line2d_3">
      <path d="M 218.073655 314.728 
L 218.073655 36 
" clip-path="url(#p296dc3f746)" style="fill: none; stroke: #ffffff; stroke-width: 0.8; stroke-linecap: round"/>
     </g>
     <g id="text_3">
      <!-- $\mathdefault{10^{7}}$ -->
      <g style="fill: #262626" transform="translate(209.273655 329.326437)scale(0.1 -0.1)">
       <defs>
        <path id="DejaVuSans-37" d="M 525 4666 
L 3525 4666 
L 3525 4397 
L 1831 0 
L 1172 0 
L 2766 4134 
L 525 4134 
L 525 4666 
z
" transform="scale(0.015625)"/>
       </defs>
       <use xlink:href="#DejaVuSans-31" transform="translate(0 0.684375)"/>
       <use xlink:href="#DejaVuSans-30" transform="translate(63.623047 0.684375)"/>
       <use xlink:href="#DejaVuSans-37" transform="translate(128.203125 38.965625)scale(0.7)"/>
      </g>
     </g>
    </g>
    <g id="xtick_4">
     <g id="line2d_4">
      <path d="M 276.649842 314.728 
L 276.649842 36 
" clip-path="url(#p296dc3f746)" style="fill: none; stroke: #ffffff; stroke-width: 0.8; stroke-linecap: round"/>
     </g>
     <g id="text_4">
      <!-- $\mathdefault{10^{9}}$ -->
      <g style="fill: #262626" transform="translate(267.849842 329.326437)scale(0.1 -0.1)">
       <defs>
        <path id="DejaVuSans-39" d="M 703 97 
L 703 672 
Q 941 559 1184 500 
Q 1428 441 1663 441 
Q 2288 441 2617 861 
Q 2947 1281 2994 2138 
Q 2813 1869 2534 1725 
Q 2256 1581 1919 1581 
Q 1219 1581 811 2004 
Q 403 2428 403 3163 
Q 403 3881 828 4315 
Q 1253 4750 1959 4750 
Q 2769 4750 3195 4129 
Q 3622 3509 3622 2328 
Q 3622 1225 3098 567 
Q 2575 -91 1691 -91 
Q 1453 -91 1209 -44 
Q 966 3 703 97 
z
M 1959 2075 
Q 2384 2075 2632 2365 
Q 2881 2656 2881 3163 
Q 2881 3666 2632 3958 
Q 2384 4250 1959 4250 
Q 1534 4250 1286 3958 
Q 1038 3666 1038 3163 
Q 1038 2656 1286 2365 
Q 1534 2075 1959 2075 
z
" transform="scale(0.015625)"/>
       </defs>
       <use xlink:href="#DejaVuSans-31" transform="translate(0 0.765625)"/>
       <use xlink:href="#DejaVuSans-30" transform="translate(63.623047 0.765625)"/>
       <use xlink:href="#DejaVuSans-39" transform="translate(128.203125 39.046875)scale(0.7)"/>
      </g>
     </g>
    </g>
    <g id="xtick_5">
     <g id="line2d_5">
      <path d="M 335.226028 314.728 
L 335.226028 36 
" clip-path="url(#p296dc3f746)" style="fill: none; stroke: #ffffff; stroke-width: 0.8; stroke-linecap: round"/>
     </g>
     <g id="text_5">
      <!-- $\mathdefault{10^{11}}$ -->
      <g style="fill: #262626" transform="translate(324.176028 329.326437)scale(0.1 -0.1)">
       <use xlink:href="#DejaVuSans-31" transform="translate(0 0.684375)"/>
       <use xlink:href="#DejaVuSans-30" transform="translate(63.623047 0.684375)"/>
       <use xlink:href="#DejaVuSans-31" transform="translate(128.203125 38.965625)scale(0.7)"/>
       <use xlink:href="#DejaVuSans-31" transform="translate(172.739258 38.965625)scale(0.7)"/>
      </g>
     </g>
    </g>
    <g id="text_6">
     <!-- Vegetation carbon stock (tonnes) -->
     <g style="fill: #262626" transform="translate(118.391406 343.004563)scale(0.1 -0.1)">
      <defs>
       <path id="DejaVuSans-56" d="M 1831 0 
L 50 4666 
L 709 4666 
L 2188 738 
L 3669 4666 
L 4325 4666 
L 2547 0 
L 1831 0 
z
" transform="scale(0.015625)"/>
       <path id="DejaVuSans-65" d="M 3597 1894 
L 3597 1613 
L 953 1613 
Q 991 1019 1311 708 
Q 1631 397 2203 397 
Q 2534 397 2845 478 
Q 3156 559 3463 722 
L 3463 178 
Q 3153 47 2828 -22 
Q 2503 -91 2169 -91 
Q 1331 -91 842 396 
Q 353 884 353 1716 
Q 353 2575 817 3079 
Q 1281 3584 2069 3584 
Q 2775 3584 3186 3129 
Q 3597 2675 3597 1894 
z
M 3022 2063 
Q 3016 2534 2758 2815 
Q 2500 3097 2075 3097 
Q 1594 3097 1305 2825 
Q 1016 2553 972 2059 
L 3022 2063 
z
" transform="scale(0.015625)"/>
       <path id="DejaVuSans-67" d="M 2906 1791 
Q 2906 2416 2648 2759 
Q 2391 3103 1925 3103 
Q 1463 3103 1205 2759 
Q 947 2416 947 1791 
Q 947 1169 1205 825 
Q 1463 481 1925 481 
Q 2391 481 2648 825 
Q 2906 1169 2906 1791 
z
M 3481 434 
Q 3481 -459 3084 -895 
Q 2688 -1331 1869 -1331 
Q 1566 -1331 1297 -1286 
Q 1028 -1241 775 -1147 
L 775 -588 
Q 1028 -725 1275 -790 
Q 1522 -856 1778 -856 
Q 2344 -856 2625 -561 
Q 2906 -266 2906 331 
L 2906 616 
Q 2728 306 2450 153 
Q 2172 0 1784 0 
Q 1141 0 747 490 
Q 353 981 353 1791 
Q 353 2603 747 3093 
Q 1141 3584 1784 3584 
Q 2172 3584 2450 3431 
Q 2728 3278 2906 2969 
L 2906 3500 
L 3481 3500 
L 3481 434 
z
" transform="scale(0.015625)"/>
       <path id="DejaVuSans-74" d="M 1172 4494 
L 1172 3500 
L 2356 3500 
L 2356 3053 
L 1172 3053 
L 1172 1153 
Q 1172 725 1289 603 
Q 1406 481 1766 481 
L 2356 481 
L 2356 0 
L 1766 0 
Q 1100 0 847 248 
Q 594 497 594 1153 
L 594 3053 
L 172 3053 
L 172 3500 
L 594 3500 
L 594 4494 
L 1172 4494 
z
" transform="scale(0.015625)"/>
       <path id="DejaVuSans-61" d="M 2194 1759 
Q 1497 1759 1228 1600 
Q 959 1441 959 1056 
Q 959 750 1161 570 
Q 1363 391 1709 391 
Q 2188 391 2477 730 
Q 2766 1069 2766 1631 
L 2766 1759 
L 2194 1759 
z
M 3341 1997 
L 3341 0 
L 2766 0 
L 2766 531 
Q 2569 213 2275 61 
Q 1981 -91 1556 -91 
Q 1019 -91 701 211 
Q 384 513 384 1019 
Q 384 1609 779 1909 
Q 1175 2209 1959 2209 
L 2766 2209 
L 2766 2266 
Q 2766 2663 2505 2880 
Q 2244 3097 1772 3097 
Q 1472 3097 1187 3025 
Q 903 2953 641 2809 
L 641 3341 
Q 956 3463 1253 3523 
Q 1550 3584 1831 3584 
Q 2591 3584 2966 3190 
Q 3341 2797 3341 1997 
z
" transform="scale(0.015625)"/>
       <path id="DejaVuSans-69" d="M 603 3500 
L 1178 3500 
L 1178 0 
L 603 0 
L 603 3500 
z
M 603 4863 
L 1178 4863 
L 1178 4134 
L 603 4134 
L 603 4863 
z
" transform="scale(0.015625)"/>
       <path id="DejaVuSans-6f" d="M 1959 3097 
Q 1497 3097 1228 2736 
Q 959 2375 959 1747 
Q 959 1119 1226 758 
Q 1494 397 1959 397 
Q 2419 397 2687 759 
Q 2956 1122 2956 1747 
Q 2956 2369 2687 2733 
Q 2419 3097 1959 3097 
z
M 1959 3584 
Q 2709 3584 3137 3096 
Q 3566 2609 3566 1747 
Q 3566 888 3137 398 
Q 2709 -91 1959 -91 
Q 1206 -91 779 398 
Q 353 888 353 1747 
Q 353 2609 779 3096 
Q 1206 3584 1959 3584 
z
" transform="scale(0.015625)"/>
       <path id="DejaVuSans-6e" d="M 3513 2113 
L 3513 0 
L 2938 0 
L 2938 2094 
Q 2938 2591 2744 2837 
Q 2550 3084 2163 3084 
Q 1697 3084 1428 2787 
Q 1159 2491 1159 1978 
L 1159 0 
L 581 0 
L 581 3500 
L 1159 3500 
L 1159 2956 
Q 1366 3272 1645 3428 
Q 1925 3584 2291 3584 
Q 2894 3584 3203 3211 
Q 3513 2838 3513 2113 
z
" transform="scale(0.015625)"/>
       <path id="DejaVuSans-20" transform="scale(0.015625)"/>
       <path id="DejaVuSans-63" d="M 3122 3366 
L 3122 2828 
Q 2878 2963 2633 3030 
Q 2388 3097 2138 3097 
Q 1578 3097 1268 2742 
Q 959 2388 959 1747 
Q 959 1106 1268 751 
Q 1578 397 2138 397 
Q 2388 397 2633 464 
Q 2878 531 3122 666 
L 3122 134 
Q 2881 22 2623 -34 
Q 2366 -91 2075 -91 
Q 1284 -91 818 406 
Q 353 903 353 1747 
Q 353 2603 823 3093 
Q 1294 3584 2113 3584 
Q 2378 3584 2631 3529 
Q 2884 3475 3122 3366 
z
" transform="scale(0.015625)"/>
       <path id="DejaVuSans-72" d="M 2631 2963 
Q 2534 3019 2420 3045 
Q 2306 3072 2169 3072 
Q 1681 3072 1420 2755 
Q 1159 2438 1159 1844 
L 1159 0 
L 581 0 
L 581 3500 
L 1159 3500 
L 1159 2956 
Q 1341 3275 1631 3429 
Q 1922 3584 2338 3584 
Q 2397 3584 2469 3576 
Q 2541 3569 2628 3553 
L 2631 2963 
z
" transform="scale(0.015625)"/>
       <path id="DejaVuSans-62" d="M 3116 1747 
Q 3116 2381 2855 2742 
Q 2594 3103 2138 3103 
Q 1681 3103 1420 2742 
Q 1159 2381 1159 1747 
Q 1159 1113 1420 752 
Q 1681 391 2138 391 
Q 2594 391 2855 752 
Q 3116 1113 3116 1747 
z
M 1159 2969 
Q 1341 3281 1617 3432 
Q 1894 3584 2278 3584 
Q 2916 3584 3314 3078 
Q 3713 2572 3713 1747 
Q 3713 922 3314 415 
Q 2916 -91 2278 -91 
Q 1894 -91 1617 61 
Q 1341 213 1159 525 
L 1159 0 
L 581 0 
L 581 4863 
L 1159 4863 
L 1159 2969 
z
" transform="scale(0.015625)"/>
       <path id="DejaVuSans-73" d="M 2834 3397 
L 2834 2853 
Q 2591 2978 2328 3040 
Q 2066 3103 1784 3103 
Q 1356 3103 1142 2972 
Q 928 2841 928 2578 
Q 928 2378 1081 2264 
Q 1234 2150 1697 2047 
L 1894 2003 
Q 2506 1872 2764 1633 
Q 3022 1394 3022 966 
Q 3022 478 2636 193 
Q 2250 -91 1575 -91 
Q 1294 -91 989 -36 
Q 684 19 347 128 
L 347 722 
Q 666 556 975 473 
Q 1284 391 1588 391 
Q 1994 391 2212 530 
Q 2431 669 2431 922 
Q 2431 1156 2273 1281 
Q 2116 1406 1581 1522 
L 1381 1569 
Q 847 1681 609 1914 
Q 372 2147 372 2553 
Q 372 3047 722 3315 
Q 1072 3584 1716 3584 
Q 2034 3584 2315 3537 
Q 2597 3491 2834 3397 
z
" transform="scale(0.015625)"/>
       <path id="DejaVuSans-6b" d="M 581 4863 
L 1159 4863 
L 1159 1991 
L 2875 3500 
L 3609 3500 
L 1753 1863 
L 3688 0 
L 2938 0 
L 1159 1709 
L 1159 0 
L 581 0 
L 581 4863 
z
" transform="scale(0.015625)"/>
       <path id="DejaVuSans-28" d="M 1984 4856 
Q 1566 4138 1362 3434 
Q 1159 2731 1159 2009 
Q 1159 1288 1364 580 
Q 1569 -128 1984 -844 
L 1484 -844 
Q 1016 -109 783 600 
Q 550 1309 550 2009 
Q 550 2706 781 3412 
Q 1013 4119 1484 4856 
L 1984 4856 
z
" transform="scale(0.015625)"/>
       <path id="DejaVuSans-29" d="M 513 4856 
L 1013 4856 
Q 1481 4119 1714 3412 
Q 1947 2706 1947 2009 
Q 1947 1309 1714 600 
Q 1481 -109 1013 -844 
L 513 -844 
Q 928 -128 1133 580 
Q 1338 1288 1338 2009 
Q 1338 2731 1133 3434 
Q 928 4138 513 4856 
z
" transform="scale(0.015625)"/>
      </defs>
      <use xlink:href="#DejaVuSans-56"/>
      <use xlink:href="#DejaVuSans-65" x="60.658203"/>
      <use xlink:href="#DejaVuSans-67" x="122.181641"/>
      <use xlink:href="#DejaVuSans-65" x="185.658203"/>
      <use xlink:href="#DejaVuSans-74" x="247.181641"/>
      <use xlink:href="#DejaVuSans-61" x="286.390625"/>
      <use xlink:href="#DejaVuSans-74" x="347.669922"/>
      <use xlink:href="#DejaVuSans-69" x="386.878906"/>
      <use xlink:href="#DejaVuSans-6f" x="414.662109"/>
      <use xlink:href="#DejaVuSans-6e" x="475.84375"/>
      <use xlink:href="#DejaVuSans-20" x="539.222656"/>
      <use xlink:href="#DejaVuSans-63" x="571.009766"/>
      <use xlink:href="#DejaVuSans-61" x="625.990234"/>
      <use xlink:href="#DejaVuSans-72" x="687.269531"/>
      <use xlink:href="#DejaVuSans-62" x="728.382812"/>
      <use xlink:href="#DejaVuSans-6f" x="791.859375"/>
      <use xlink:href="#DejaVuSans-6e" x="853.041016"/>
      <use xlink:href="#DejaVuSans-20" x="916.419922"/>
      <use xlink:href="#DejaVuSans-73" x="948.207031"/>
      <use xlink:href="#DejaVuSans-74" x="1000.306641"/>
      <use xlink:href="#DejaVuSans-6f" x="1039.515625"/>
      <use xlink:href="#DejaVuSans-63" x="1100.697266"/>
      <use xlink:href="#DejaVuSans-6b" x="1155.677734"/>
      <use xlink:href="#DejaVuSans-20" x="1213.587891"/>
      <use xlink:href="#DejaVuSans-28" x="1245.375"/>
      <use xlink:href="#DejaVuSans-74" x="1284.388672"/>
      <use xlink:href="#DejaVuSans-6f" x="1323.597656"/>
      <use xlink:href="#DejaVuSans-6e" x="1384.779297"/>
      <use xlink:href="#DejaVuSans-6e" x="1448.158203"/>
      <use xlink:href="#DejaVuSans-65" x="1511.537109"/>
      <use xlink:href="#DejaVuSans-73" x="1573.060547"/>
      <use xlink:href="#DejaVuSans-29" x="1625.160156"/>
     </g>
    </g>
   </g>
   <g id="matplotlib.axis_2">
    <g id="ytick_1">
     <g id="line2d_6">
      <path d="M 54 314.728 
L 349.2 314.728 
" clip-path="url(#p296dc3f746)" style="fill: none; stroke: #ffffff; stroke-width: 0.8; stroke-linecap: round"/>
     </g>
     <g id="text_7">
      <!-- $\mathdefault{10^{0}}$ -->
      <g style="fill: #262626" transform="translate(29.4 318.527219)scale(0.1 -0.1)">
       <use xlink:href="#DejaVuSans-31" transform="translate(0 0.765625)"/>
       <use xlink:href="#DejaVuSans-30" transform="translate(63.623047 0.765625)"/>
       <use xlink:href="#DejaVuSans-30" transform="translate(128.203125 39.046875)scale(0.7)"/>
      </g>
     </g>
    </g>
    <g id="ytick_2">
     <g id="line2d_7">
      <path d="M 54 175.364 
L 349.2 175.364 
" clip-path="url(#p296dc3f746)" style="fill: none; stroke: #ffffff; stroke-width: 0.8; stroke-linecap: round"/>
     </g>
     <g id="text_8">
      <!-- $\mathdefault{10^{1}}$ -->
      <g style="fill: #262626" transform="translate(29.4 179.163219)scale(0.1 -0.1)">
       <use xlink:href="#DejaVuSans-31" transform="translate(0 0.684375)"/>
       <use xlink:href="#DejaVuSans-30" transform="translate(63.623047 0.684375)"/>
       <use xlink:href="#DejaVuSans-31" transform="translate(128.203125 38.965625)scale(0.7)"/>
      </g>
     </g>
    </g>
    <g id="ytick_3">
     <g id="line2d_8">
      <path d="M 54 36 
L 349.2 36 
" clip-path="url(#p296dc3f746)" style="fill: none; stroke: #ffffff; stroke-width: 0.8; stroke-linecap: round"/>
     </g>
     <g id="text_9">
      <!-- $\mathdefault{10^{2}}$ -->
      <g style="fill: #262626" transform="translate(29.4 39.799219)scale(0.1 -0.1)">
       <defs>
        <path id="DejaVuSans-32" d="M 1228 531 
L 3431 531 
L 3431 0 
L 469 0 
L 469 531 
Q 828 903 1448 1529 
Q 2069 2156 2228 2338 
Q 2531 2678 2651 2914 
Q 2772 3150 2772 3378 
Q 2772 3750 2511 3984 
Q 2250 4219 1831 4219 
Q 1534 4219 1204 4116 
Q 875 4013 500 3803 
L 500 4441 
Q 881 4594 1212 4672 
Q 1544 4750 1819 4750 
Q 2544 4750 2975 4387 
Q 3406 4025 3406 3419 
Q 3406 3131 3298 2873 
Q 3191 2616 2906 2266 
Q 2828 2175 2409 1742 
Q 1991 1309 1228 531 
z
" transform="scale(0.015625)"/>
       </defs>
       <use xlink:href="#DejaVuSans-31" transform="translate(0 0.765625)"/>
       <use xlink:href="#DejaVuSans-30" transform="translate(63.623047 0.765625)"/>
       <use xlink:href="#DejaVuSans-32" transform="translate(128.203125 39.046875)scale(0.7)"/>
      </g>
     </g>
    </g>
    <g id="ytick_4"/>
    <g id="ytick_5"/>
    <g id="ytick_6"/>
    <g id="ytick_7"/>
    <g id="ytick_8"/>
    <g id="ytick_9"/>
    <g id="ytick_10"/>
    <g id="ytick_11"/>
    <g id="ytick_12"/>
    <g id="ytick_13"/>
    <g id="ytick_14"/>
    <g id="ytick_15"/>
    <g id="ytick_16"/>
    <g id="ytick_17"/>
    <g id="ytick_18"/>
    <g id="ytick_19"/>
    <g id="text_10">
     <!-- Number of countries -->
     <g style="fill: #262626" transform="translate(23.320312 226.679625)rotate(-90)scale(0.1 -0.1)">
      <defs>
       <path id="DejaVuSans-4e" d="M 628 4666 
L 1478 4666 
L 3547 763 
L 3547 4666 
L 4159 4666 
L 4159 0 
L 3309 0 
L 1241 3903 
L 1241 0 
L 628 0 
L 628 4666 
z
" transform="scale(0.015625)"/>
       <path id="DejaVuSans-75" d="M 544 1381 
L 544 3500 
L 1119 3500 
L 1119 1403 
Q 1119 906 1312 657 
Q 1506 409 1894 409 
Q 2359 409 2629 706 
Q 2900 1003 2900 1516 
L 2900 3500 
L 3475 3500 
L 3475 0 
L 2900 0 
L 2900 538 
Q 2691 219 2414 64 
Q 2138 -91 1772 -91 
Q 1169 -91 856 284 
Q 544 659 544 1381 
z
M 1991 3584 
L 1991 3584 
z
" transform="scale(0.015625)"/>
       <path id="DejaVuSans-6d" d="M 3328 2828 
Q 3544 3216 3844 3400 
Q 4144 3584 4550 3584 
Q 5097 3584 5394 3201 
Q 5691 2819 5691 2113 
L 5691 0 
L 5113 0 
L 5113 2094 
Q 5113 2597 4934 2840 
Q 4756 3084 4391 3084 
Q 3944 3084 3684 2787 
Q 3425 2491 3425 1978 
L 3425 0 
L 2847 0 
L 2847 2094 
Q 2847 2600 2669 2842 
Q 2491 3084 2119 3084 
Q 1678 3084 1418 2786 
Q 1159 2488 1159 1978 
L 1159 0 
L 581 0 
L 581 3500 
L 1159 3500 
L 1159 2956 
Q 1356 3278 1631 3431 
Q 1906 3584 2284 3584 
Q 2666 3584 2933 3390 
Q 3200 3197 3328 2828 
z
" transform="scale(0.015625)"/>
       <path id="DejaVuSans-66" d="M 2375 4863 
L 2375 4384 
L 1825 4384 
Q 1516 4384 1395 4259 
Q 1275 4134 1275 3809 
L 1275 3500 
L 2222 3500 
L 2222 3053 
L 1275 3053 
L 1275 0 
L 697 0 
L 697 3053 
L 147 3053 
L 147 3500 
L 697 3500 
L 697 3744 
Q 697 4328 969 4595 
Q 1241 4863 1831 4863 
L 2375 4863 
z
" transform="scale(0.015625)"/>
      </defs>
      <use xlink:href="#DejaVuSans-4e"/>
      <use xlink:href="#DejaVuSans-75" x="74.804688"/>
      <use xlink:href="#DejaVuSans-6d" x="138.183594"/>
      <use xlink:href="#DejaVuSans-62" x="235.595703"/>
      <use xlink:href="#DejaVuSans-65" x="299.072266"/>
      <use xlink:href="#DejaVuSans-72" x="360.595703"/>
      <use xlink:href="#DejaVuSans-20" x="401.708984"/>
      <use xlink:href="#DejaVuSans-6f" x="433.496094"/>
      <use xlink:href="#DejaVuSans-66" x="494.677734"/>
      <use xlink:href="#DejaVuSans-20" x="529.882812"/>
      <use xlink:href="#DejaVuSans-63" x="561.669922"/>
      <use xlink:href="#DejaVuSans-6f" x="616.650391"/>
      <use xlink:href="#DejaVuSans-75" x="677.832031"/>
      <use xlink:href="#DejaVuSans-6e" x="741.210938"/>
      <use xlink:href="#DejaVuSans-74" x="804.589844"/>
      <use xlink:href="#DejaVuSans-72" x="843.798828"/>
      <use xlink:href="#DejaVuSans-69" x="884.912109"/>
      <use xlink:href="#DejaVuSans-65" x="912.695312"/>
      <use xlink:href="#DejaVuSans-73" x="974.21875"/>
     </g>
    </g>
   </g>
   <g id="patch_3">
    <path d="M 91.677405 139678.728 
L 111.894598 139678.728 
L 111.894598 217.316744 
L 91.677405 217.316744 
z
" clip-path="url(#p296dc3f746)" style="fill: #a1c9f4; fill-opacity: 0.5; stroke: #ffffff; stroke-linejoin: miter"/>
   </g>
   <g id="patch_4">
    <path d="M 111.894598 139678.728 
L 132.11179 139678.728 
L 132.11179 181.740947 
L 111.894598 181.740947 
z
" clip-path="url(#p296dc3f746)" style="fill: #a1c9f4; fill-opacity: 0.5; stroke: #ffffff; stroke-linejoin: miter"/>
   </g>
   <g id="patch_5">
    <path d="M 132.11179 139678.728 
L 152.328983 139678.728 
L 152.328983 206.281729 
L 132.11179 206.281729 
z
" clip-path="url(#p296dc3f746)" style="fill: #a1c9f4; fill-opacity: 0.5; stroke: #ffffff; stroke-linejoin: miter"/>
   </g>
   <g id="patch_6">
    <path d="M 152.328983 139678.728 
L 172.546176 139678.728 
L 172.546176 154.999012 
L 152.328983 154.999012 
z
" clip-path="url(#p296dc3f746)" style="fill: #a1c9f4; fill-opacity: 0.5; stroke: #ffffff; stroke-linejoin: miter"/>
   </g>
   <g id="patch_7">
    <path d="M 172.546176 139678.728 
L 192.763368 139678.728 
L 192.763368 154.999012 
L 172.546176 154.999012 
z
" clip-path="url(#p296dc3f746)" style="fill: #a1c9f4; fill-opacity: 0.5; stroke: #ffffff; stroke-linejoin: miter"/>
   </g>
   <g id="patch_8">
    <path d="M 192.763368 139678.728 
L 212.980561 139678.728 
L 212.980561 130.45823 
L 192.763368 130.45823 
z
" clip-path="url(#p296dc3f746)" style="fill: #a1c9f4; fill-opacity: 0.5; stroke: #ffffff; stroke-linejoin: miter"/>
   </g>
   <g id="patch_9">
    <path d="M 212.980561 139678.728 
L 233.197753 139678.728 
L 233.197753 143.247717 
L 212.980561 143.247717 
z
" clip-path="url(#p296dc3f746)" style="fill: #a1c9f4; fill-opacity: 0.5; stroke: #ffffff; stroke-linejoin: miter"/>
   </g>
   <g id="patch_10">
    <path d="M 233.197753 139678.728 
L 253.414946 139678.728 
L 253.414946 81.697754 
L 233.197753 81.697754 
z
" clip-path="url(#p296dc3f746)" style="fill: #a1c9f4; fill-opacity: 0.5; stroke: #ffffff; stroke-linejoin: miter"/>
   </g>
   <g id="patch_11">
    <path d="M 253.414946 139678.728 
L 273.632139 139678.728 
L 273.632139 87.081302 
L 253.414946 87.081302 
z
" clip-path="url(#p296dc3f746)" style="fill: #a1c9f4; fill-opacity: 0.5; stroke: #ffffff; stroke-linejoin: miter"/>
   </g>
   <g id="patch_12">
    <path d="M 273.632139 139678.728 
L 293.849331 139678.728 
L 293.849331 89.963991 
L 273.632139 89.963991 
z
" clip-path="url(#p296dc3f746)" style="fill: #a1c9f4; fill-opacity: 0.5; stroke: #ffffff; stroke-linejoin: miter"/>
   </g>
   <g id="patch_13">
    <path d="M 293.849331 139678.728 
L 314.066524 139678.728 
L 314.066524 117.531654 
L 293.849331 117.531654 
z
" clip-path="url(#p296dc3f746)" style="fill: #a1c9f4; fill-opacity: 0.5; stroke: #ffffff; stroke-linejoin: miter"/>
   </g>
   <g id="patch_14">
    <path d="M 314.066524 139678.728 
L 334.283716 139678.728 
L 334.283716 217.316744 
L 314.066524 217.316744 
z
" clip-path="url(#p296dc3f746)" style="fill: #a1c9f4; fill-opacity: 0.5; stroke: #ffffff; stroke-linejoin: miter"/>
   </g>
   <g id="line2d_9">
    <path d="M 91.677405 256.635452 
L 94.11566 248.184834 
L 96.553914 240.400347 
L 98.992168 233.272393 
L 101.430423 226.79119 
L 103.868677 220.946212 
L 106.306931 215.725491 
L 108.745186 211.114741 
L 111.18344 207.096276 
L 113.621695 203.647685 
L 116.059949 200.740255 
L 118.498203 198.337172 
L 120.936458 196.39157 
L 123.374712 194.844635 
L 125.812966 193.624072 
L 128.251221 192.643421 
L 136.785111 189.583266 
L 139.223366 188.35892 
L 141.66162 186.806002 
L 144.099874 184.871991 
L 146.538129 182.542201 
L 148.976383 179.841126 
L 151.414638 176.827815 
L 155.072019 171.910709 
L 162.386782 161.850323 
L 166.044164 157.271544 
L 168.482418 154.513676 
L 170.920673 152.02177 
L 173.358927 149.803029 
L 175.797181 147.850589 
L 178.235436 146.146227 
L 180.67369 144.663163 
L 184.331072 142.781125 
L 187.988453 141.200491 
L 194.084089 138.897521 
L 200.179725 136.539998 
L 203.837107 134.887375 
L 207.494488 132.925111 
L 209.932743 131.394622 
L 212.370997 129.655901 
L 214.809252 127.690149 
L 217.247506 125.48829 
L 219.68576 123.05359 
L 223.343142 119.006546 
L 227.000523 114.593928 
L 237.972668 101.009359 
L 241.63005 97.01646 
L 244.068304 94.64116 
L 246.506559 92.530892 
L 248.944813 90.706272 
L 251.383067 89.179844 
L 253.821322 87.957209 
L 256.259576 87.038369 
L 258.69783 86.41915 
L 261.136085 86.092604 
L 263.574339 86.050336 
L 266.012594 86.283675 
L 268.450848 86.784657 
L 270.889102 87.546808 
L 273.327357 88.565692 
L 275.765611 89.839254 
L 278.203866 91.367962 
L 280.64212 93.154791 
L 283.080374 95.205078 
L 285.518629 97.526307 
L 287.956883 100.127836 
L 290.395137 103.02064 
L 292.833392 106.217055 
L 295.271646 109.73058 
L 297.709901 113.575706 
L 300.148155 117.767796 
L 302.586409 122.322992 
L 305.024664 127.258132 
L 307.462918 132.590666 
L 309.901173 138.338557 
L 312.339427 144.520149 
L 314.777681 151.153996 
L 317.215936 158.258671 
L 319.65419 165.852534 
L 322.092444 173.953506 
L 325.749826 187.093297 
L 329.407208 201.467125 
L 333.064589 217.124158 
L 334.283716 222.63604 
L 334.283716 222.63604 
" clip-path="url(#p296dc3f746)" style="fill: none; stroke: #a1c9f4; stroke-width: 1.5; stroke-linecap: round"/>
   </g>
   <g id="patch_15">
    <path d="M 54 314.728 
L 54 36 
" style="fill: none; stroke: #ffffff; stroke-width: 0.8; stroke-linejoin: miter; stroke-linecap: square"/>
   </g>
   <g id="patch_16">
    <path d="M 54 314.728 
L 349.2 314.728 
" style="fill: none; stroke: #ffffff; stroke-width: 0.8; stroke-linejoin: miter; stroke-linecap: square"/>
   </g>
  </g>
  <g id="text_11">
   <!-- Distribution of vegetation carbon stock in tonnes -->
   <g style="fill: #262626" transform="translate(32.94375 16.318125)scale(0.12 -0.12)">
    <defs>
     <path id="DejaVuSans-44" d="M 1259 4147 
L 1259 519 
L 2022 519 
Q 2988 519 3436 956 
Q 3884 1394 3884 2338 
Q 3884 3275 3436 3711 
Q 2988 4147 2022 4147 
L 1259 4147 
z
M 628 4666 
L 1925 4666 
Q 3281 4666 3915 4102 
Q 4550 3538 4550 2338 
Q 4550 1131 3912 565 
Q 3275 0 1925 0 
L 628 0 
L 628 4666 
z
" transform="scale(0.015625)"/>
     <path id="DejaVuSans-76" d="M 191 3500 
L 800 3500 
L 1894 563 
L 2988 3500 
L 3597 3500 
L 2284 0 
L 1503 0 
L 191 3500 
z
" transform="scale(0.015625)"/>
    </defs>
    <use xlink:href="#DejaVuSans-44"/>
    <use xlink:href="#DejaVuSans-69" x="77.001953"/>
    <use xlink:href="#DejaVuSans-73" x="104.785156"/>
    <use xlink:href="#DejaVuSans-74" x="156.884766"/>
    <use xlink:href="#DejaVuSans-72" x="196.09375"/>
    <use xlink:href="#DejaVuSans-69" x="237.207031"/>
    <use xlink:href="#DejaVuSans-62" x="264.990234"/>
    <use xlink:href="#DejaVuSans-75" x="328.466797"/>
    <use xlink:href="#DejaVuSans-74" x="391.845703"/>
    <use xlink:href="#DejaVuSans-69" x="431.054688"/>
    <use xlink:href="#DejaVuSans-6f" x="458.837891"/>
    <use xlink:href="#DejaVuSans-6e" x="520.019531"/>
    <use xlink:href="#DejaVuSans-20" x="583.398438"/>
    <use xlink:href="#DejaVuSans-6f" x="615.185547"/>
    <use xlink:href="#DejaVuSans-66" x="676.367188"/>
    <use xlink:href="#DejaVuSans-20" x="711.572266"/>
    <use xlink:href="#DejaVuSans-76" x="743.359375"/>
    <use xlink:href="#DejaVuSans-65" x="802.539062"/>
    <use xlink:href="#DejaVuSans-67" x="864.0625"/>
    <use xlink:href="#DejaVuSans-65" x="927.539062"/>
    <use xlink:href="#DejaVuSans-74" x="989.0625"/>
    <use xlink:href="#DejaVuSans-61" x="1028.271484"/>
    <use xlink:href="#DejaVuSans-74" x="1089.550781"/>
    <use xlink:href="#DejaVuSans-69" x="1128.759766"/>
    <use xlink:href="#DejaVuSans-6f" x="1156.542969"/>
    <use xlink:href="#DejaVuSans-6e" x="1217.724609"/>
    <use xlink:href="#DejaVuSans-20" x="1281.103516"/>
    <use xlink:href="#DejaVuSans-63" x="1312.890625"/>
    <use xlink:href="#DejaVuSans-61" x="1367.871094"/>
    <use xlink:href="#DejaVuSans-72" x="1429.150391"/>
    <use xlink:href="#DejaVuSans-62" x="1470.263672"/>
    <use xlink:href="#DejaVuSans-6f" x="1533.740234"/>
    <use xlink:href="#DejaVuSans-6e" x="1594.921875"/>
    <use xlink:href="#DejaVuSans-20" x="1658.300781"/>
    <use xlink:href="#DejaVuSans-73" x="1690.087891"/>
    <use xlink:href="#DejaVuSans-74" x="1742.1875"/>
    <use xlink:href="#DejaVuSans-6f" x="1781.396484"/>
    <use xlink:href="#DejaVuSans-63" x="1842.578125"/>
    <use xlink:href="#DejaVuSans-6b" x="1897.558594"/>
    <use xlink:href="#DejaVuSans-20" x="1955.46875"/>
    <use xlink:href="#DejaVuSans-69" x="1987.255859"/>
    <use xlink:href="#DejaVuSans-6e" x="2015.039062"/>
    <use xlink:href="#DejaVuSans-20" x="2078.417969"/>
    <use xlink:href="#DejaVuSans-74" x="2110.205078"/>
    <use xlink:href="#DejaVuSans-6f" x="2149.414062"/>
    <use xlink:href="#DejaVuSans-6e" x="2210.595703"/>
    <use xlink:href="#DejaVuSans-6e" x="2273.974609"/>
    <use xlink:href="#DejaVuSans-65" x="2337.353516"/>
    <use xlink:href="#DejaVuSans-73" x="2398.876953"/>
   </g>
   <!-- 2019 -->
   <g style="fill: #262626" transform="translate(164.73 29.7555)scale(0.12 -0.12)">
    <use xlink:href="#DejaVuSans-32"/>
    <use xlink:href="#DejaVuSans-30" x="63.623047"/>
    <use xlink:href="#DejaVuSans-31" x="127.246094"/>
    <use xlink:href="#DejaVuSans-39" x="190.869141"/>
   </g>
  </g>
 </g>
 <defs>
  <clipPath id="p296dc3f746">
   <rect x="54" y="36" width="295.2" height="278.728"/>
  </clipPath>
 </defs>
</svg>
