<?xml version="1.0" encoding="utf-8" standalone="no"?>
<!DOCTYPE svg PUBLIC "-//W3C//DTD SVG 1.1//EN"
  "http://www.w3.org/Graphics/SVG/1.1/DTD/svg11.dtd">
<svg xmlns:xlink="http://www.w3.org/1999/xlink" width="521.1pt" height="360pt" viewBox="0 0 521.1 360" xmlns="http://www.w3.org/2000/svg" version="1.1">
 <metadata>
  <rdf:RDF xmlns:dc="http://purl.org/dc/elements/1.1/" xmlns:cc="http://creativecommons.org/ns#" xmlns:rdf="http://www.w3.org/1999/02/22-rdf-syntax-ns#">
   <cc:Work>
    <dc:type rdf:resource="http://purl.org/dc/dcmitype/StillImage"/>
    <dc:date>2023-01-23T10:06:26.747812</dc:date>
    <dc:format>image/svg+xml</dc:format>
    <dc:creator>
     <cc:Agent>
      <dc:title>Matplotlib v3.5.2, https://matplotlib.org/</dc:title>
     </cc:Agent>
    </dc:creator>
   </cc:Work>
  </rdf:RDF>
 </metadata>
 <defs>
  <style type="text/css">*{stroke-linejoin: round; stroke-linecap: butt}</style>
 </defs>
 <g id="figure_1">
  <g id="patch_1">
   <path d="M 0 360 
L 521.1 360 
L 521.1 0 
L 0 0 
z
" style="fill: #ffffff"/>
  </g>
  <g id="axes_1">
   <g id="patch_2">
    <path d="M 78.165 324 
L 354.789 324 
L 354.789 36 
L 78.165 36 
z
" style="fill: #ececec"/>
   </g>
   <g id="matplotlib.axis_1">
    <g id="xtick_1">
     <g id="line2d_1">
      <path d="M 90.738818 324 
L 90.738818 36 
" clip-path="url(#p5ff9512b12)" style="fill: none; stroke: #ffffff; stroke-width: 0.8; stroke-linecap: round"/>
     </g>
     <g id="text_1">
      <!-- 2010 -->
      <g style="fill: #262626" transform="translate(83.692057 354.368774)rotate(-45)scale(0.1 -0.1)">
       <defs>
        <path id="DejaVuSans-32" d="M 1228 531 
L 3431 531 
L 3431 0 
L 469 0 
L 469 531 
Q 828 903 1448 1529 
Q 2069 2156 2228 2338 
Q 2531 2678 2651 2914 
Q 2772 3150 2772 3378 
Q 2772 3750 2511 3984 
Q 2250 4219 1831 4219 
Q 1534 4219 1204 4116 
Q 875 4013 500 3803 
L 500 4441 
Q 881 4594 1212 4672 
Q 1544 4750 1819 4750 
Q 2544 4750 2975 4387 
Q 3406 4025 3406 3419 
Q 3406 3131 3298 2873 
Q 3191 2616 2906 2266 
Q 2828 2175 2409 1742 
Q 1991 1309 1228 531 
z
" transform="scale(0.015625)"/>
        <path id="DejaVuSans-30" d="M 2034 4250 
Q 1547 4250 1301 3770 
Q 1056 3291 1056 2328 
Q 1056 1369 1301 889 
Q 1547 409 2034 409 
Q 2525 409 2770 889 
Q 3016 1369 3016 2328 
Q 3016 3291 2770 3770 
Q 2525 4250 2034 4250 
z
M 2034 4750 
Q 2819 4750 3233 4129 
Q 3647 3509 3647 2328 
Q 3647 1150 3233 529 
Q 2819 -91 2034 -91 
Q 1250 -91 836 529 
Q 422 1150 422 2328 
Q 422 3509 836 4129 
Q 1250 4750 2034 4750 
z
" transform="scale(0.015625)"/>
        <path id="DejaVuSans-31" d="M 794 531 
L 1825 531 
L 1825 4091 
L 703 3866 
L 703 4441 
L 1819 4666 
L 2450 4666 
L 2450 531 
L 3481 531 
L 3481 0 
L 794 0 
L 794 531 
z
" transform="scale(0.015625)"/>
       </defs>
       <use xlink:href="#DejaVuSans-32"/>
       <use xlink:href="#DejaVuSans-30" x="63.623047"/>
       <use xlink:href="#DejaVuSans-31" x="127.246094"/>
       <use xlink:href="#DejaVuSans-30" x="190.869141"/>
      </g>
     </g>
    </g>
    <g id="xtick_2">
     <g id="line2d_2">
      <path d="M 115.886455 324 
L 115.886455 36 
" clip-path="url(#p5ff9512b12)" style="fill: none; stroke: #ffffff; stroke-width: 0.8; stroke-linecap: round"/>
     </g>
     <g id="text_2">
      <!-- 2011 -->
      <g style="fill: #262626" transform="translate(108.839694 354.368774)rotate(-45)scale(0.1 -0.1)">
       <use xlink:href="#DejaVuSans-32"/>
       <use xlink:href="#DejaVuSans-30" x="63.623047"/>
       <use xlink:href="#DejaVuSans-31" x="127.246094"/>
       <use xlink:href="#DejaVuSans-31" x="190.869141"/>
      </g>
     </g>
    </g>
    <g id="xtick_3">
     <g id="line2d_3">
      <path d="M 141.034091 324 
L 141.034091 36 
" clip-path="url(#p5ff9512b12)" style="fill: none; stroke: #ffffff; stroke-width: 0.8; stroke-linecap: round"/>
     </g>
     <g id="text_3">
      <!-- 2012 -->
      <g style="fill: #262626" transform="translate(133.98733 354.368774)rotate(-45)scale(0.1 -0.1)">
       <use xlink:href="#DejaVuSans-32"/>
       <use xlink:href="#DejaVuSans-30" x="63.623047"/>
       <use xlink:href="#DejaVuSans-31" x="127.246094"/>
       <use xlink:href="#DejaVuSans-32" x="190.869141"/>
      </g>
     </g>
    </g>
    <g id="xtick_4">
     <g id="line2d_4">
      <path d="M 166.181727 324 
L 166.181727 36 
" clip-path="url(#p5ff9512b12)" style="fill: none; stroke: #ffffff; stroke-width: 0.8; stroke-linecap: round"/>
     </g>
     <g id="text_4">
      <!-- 2013 -->
      <g style="fill: #262626" transform="translate(159.134966 354.368774)rotate(-45)scale(0.1 -0.1)">
       <defs>
        <path id="DejaVuSans-33" d="M 2597 2516 
Q 3050 2419 3304 2112 
Q 3559 1806 3559 1356 
Q 3559 666 3084 287 
Q 2609 -91 1734 -91 
Q 1441 -91 1130 -33 
Q 819 25 488 141 
L 488 750 
Q 750 597 1062 519 
Q 1375 441 1716 441 
Q 2309 441 2620 675 
Q 2931 909 2931 1356 
Q 2931 1769 2642 2001 
Q 2353 2234 1838 2234 
L 1294 2234 
L 1294 2753 
L 1863 2753 
Q 2328 2753 2575 2939 
Q 2822 3125 2822 3475 
Q 2822 3834 2567 4026 
Q 2313 4219 1838 4219 
Q 1578 4219 1281 4162 
Q 984 4106 628 3988 
L 628 4550 
Q 988 4650 1302 4700 
Q 1616 4750 1894 4750 
Q 2613 4750 3031 4423 
Q 3450 4097 3450 3541 
Q 3450 3153 3228 2886 
Q 3006 2619 2597 2516 
z
" transform="scale(0.015625)"/>
       </defs>
       <use xlink:href="#DejaVuSans-32"/>
       <use xlink:href="#DejaVuSans-30" x="63.623047"/>
       <use xlink:href="#DejaVuSans-31" x="127.246094"/>
       <use xlink:href="#DejaVuSans-33" x="190.869141"/>
      </g>
     </g>
    </g>
    <g id="xtick_5">
     <g id="line2d_5">
      <path d="M 191.329364 324 
L 191.329364 36 
" clip-path="url(#p5ff9512b12)" style="fill: none; stroke: #ffffff; stroke-width: 0.8; stroke-linecap: round"/>
     </g>
     <g id="text_5">
      <!-- 2014 -->
      <g style="fill: #262626" transform="translate(184.282603 354.368774)rotate(-45)scale(0.1 -0.1)">
       <defs>
        <path id="DejaVuSans-34" d="M 2419 4116 
L 825 1625 
L 2419 1625 
L 2419 4116 
z
M 2253 4666 
L 3047 4666 
L 3047 1625 
L 3713 1625 
L 3713 1100 
L 3047 1100 
L 3047 0 
L 2419 0 
L 2419 1100 
L 313 1100 
L 313 1709 
L 2253 4666 
z
" transform="scale(0.015625)"/>
       </defs>
       <use xlink:href="#DejaVuSans-32"/>
       <use xlink:href="#DejaVuSans-30" x="63.623047"/>
       <use xlink:href="#DejaVuSans-31" x="127.246094"/>
       <use xlink:href="#DejaVuSans-34" x="190.869141"/>
      </g>
     </g>
    </g>
    <g id="xtick_6">
     <g id="line2d_6">
      <path d="M 216.477 324 
L 216.477 36 
" clip-path="url(#p5ff9512b12)" style="fill: none; stroke: #ffffff; stroke-width: 0.8; stroke-linecap: round"/>
     </g>
     <g id="text_6">
      <!-- 2015 -->
      <g style="fill: #262626" transform="translate(209.430239 354.368774)rotate(-45)scale(0.1 -0.1)">
       <defs>
        <path id="DejaVuSans-35" d="M 691 4666 
L 3169 4666 
L 3169 4134 
L 1269 4134 
L 1269 2991 
Q 1406 3038 1543 3061 
Q 1681 3084 1819 3084 
Q 2600 3084 3056 2656 
Q 3513 2228 3513 1497 
Q 3513 744 3044 326 
Q 2575 -91 1722 -91 
Q 1428 -91 1123 -41 
Q 819 9 494 109 
L 494 744 
Q 775 591 1075 516 
Q 1375 441 1709 441 
Q 2250 441 2565 725 
Q 2881 1009 2881 1497 
Q 2881 1984 2565 2268 
Q 2250 2553 1709 2553 
Q 1456 2553 1204 2497 
Q 953 2441 691 2322 
L 691 4666 
z
" transform="scale(0.015625)"/>
       </defs>
       <use xlink:href="#DejaVuSans-32"/>
       <use xlink:href="#DejaVuSans-30" x="63.623047"/>
       <use xlink:href="#DejaVuSans-31" x="127.246094"/>
       <use xlink:href="#DejaVuSans-35" x="190.869141"/>
      </g>
     </g>
    </g>
    <g id="xtick_7">
     <g id="line2d_7">
      <path d="M 241.624636 324 
L 241.624636 36 
" clip-path="url(#p5ff9512b12)" style="fill: none; stroke: #ffffff; stroke-width: 0.8; stroke-linecap: round"/>
     </g>
     <g id="text_7">
      <!-- 2016 -->
      <g style="fill: #262626" transform="translate(234.577875 354.368774)rotate(-45)scale(0.1 -0.1)">
       <defs>
        <path id="DejaVuSans-36" d="M 2113 2584 
Q 1688 2584 1439 2293 
Q 1191 2003 1191 1497 
Q 1191 994 1439 701 
Q 1688 409 2113 409 
Q 2538 409 2786 701 
Q 3034 994 3034 1497 
Q 3034 2003 2786 2293 
Q 2538 2584 2113 2584 
z
M 3366 4563 
L 3366 3988 
Q 3128 4100 2886 4159 
Q 2644 4219 2406 4219 
Q 1781 4219 1451 3797 
Q 1122 3375 1075 2522 
Q 1259 2794 1537 2939 
Q 1816 3084 2150 3084 
Q 2853 3084 3261 2657 
Q 3669 2231 3669 1497 
Q 3669 778 3244 343 
Q 2819 -91 2113 -91 
Q 1303 -91 875 529 
Q 447 1150 447 2328 
Q 447 3434 972 4092 
Q 1497 4750 2381 4750 
Q 2619 4750 2861 4703 
Q 3103 4656 3366 4563 
z
" transform="scale(0.015625)"/>
       </defs>
       <use xlink:href="#DejaVuSans-32"/>
       <use xlink:href="#DejaVuSans-30" x="63.623047"/>
       <use xlink:href="#DejaVuSans-31" x="127.246094"/>
       <use xlink:href="#DejaVuSans-36" x="190.869141"/>
      </g>
     </g>
    </g>
    <g id="xtick_8">
     <g id="line2d_8">
      <path d="M 266.772273 324 
L 266.772273 36 
" clip-path="url(#p5ff9512b12)" style="fill: none; stroke: #ffffff; stroke-width: 0.8; stroke-linecap: round"/>
     </g>
     <g id="text_8">
      <!-- 2017 -->
      <g style="fill: #262626" transform="translate(259.725512 354.368774)rotate(-45)scale(0.1 -0.1)">
       <defs>
        <path id="DejaVuSans-37" d="M 525 4666 
L 3525 4666 
L 3525 4397 
L 1831 0 
L 1172 0 
L 2766 4134 
L 525 4134 
L 525 4666 
z
" transform="scale(0.015625)"/>
       </defs>
       <use xlink:href="#DejaVuSans-32"/>
       <use xlink:href="#DejaVuSans-30" x="63.623047"/>
       <use xlink:href="#DejaVuSans-31" x="127.246094"/>
       <use xlink:href="#DejaVuSans-37" x="190.869141"/>
      </g>
     </g>
    </g>
    <g id="xtick_9">
     <g id="line2d_9">
      <path d="M 291.919909 324 
L 291.919909 36 
" clip-path="url(#p5ff9512b12)" style="fill: none; stroke: #ffffff; stroke-width: 0.8; stroke-linecap: round"/>
     </g>
     <g id="text_9">
      <!-- 2018 -->
      <g style="fill: #262626" transform="translate(284.873148 354.368774)rotate(-45)scale(0.1 -0.1)">
       <defs>
        <path id="DejaVuSans-38" d="M 2034 2216 
Q 1584 2216 1326 1975 
Q 1069 1734 1069 1313 
Q 1069 891 1326 650 
Q 1584 409 2034 409 
Q 2484 409 2743 651 
Q 3003 894 3003 1313 
Q 3003 1734 2745 1975 
Q 2488 2216 2034 2216 
z
M 1403 2484 
Q 997 2584 770 2862 
Q 544 3141 544 3541 
Q 544 4100 942 4425 
Q 1341 4750 2034 4750 
Q 2731 4750 3128 4425 
Q 3525 4100 3525 3541 
Q 3525 3141 3298 2862 
Q 3072 2584 2669 2484 
Q 3125 2378 3379 2068 
Q 3634 1759 3634 1313 
Q 3634 634 3220 271 
Q 2806 -91 2034 -91 
Q 1263 -91 848 271 
Q 434 634 434 1313 
Q 434 1759 690 2068 
Q 947 2378 1403 2484 
z
M 1172 3481 
Q 1172 3119 1398 2916 
Q 1625 2713 2034 2713 
Q 2441 2713 2670 2916 
Q 2900 3119 2900 3481 
Q 2900 3844 2670 4047 
Q 2441 4250 2034 4250 
Q 1625 4250 1398 4047 
Q 1172 3844 1172 3481 
z
" transform="scale(0.015625)"/>
       </defs>
       <use xlink:href="#DejaVuSans-32"/>
       <use xlink:href="#DejaVuSans-30" x="63.623047"/>
       <use xlink:href="#DejaVuSans-31" x="127.246094"/>
       <use xlink:href="#DejaVuSans-38" x="190.869141"/>
      </g>
     </g>
    </g>
    <g id="xtick_10">
     <g id="line2d_10">
      <path d="M 317.067545 324 
L 317.067545 36 
" clip-path="url(#p5ff9512b12)" style="fill: none; stroke: #ffffff; stroke-width: 0.8; stroke-linecap: round"/>
     </g>
     <g id="text_10">
      <!-- 2019 -->
      <g style="fill: #262626" transform="translate(310.020784 354.368774)rotate(-45)scale(0.1 -0.1)">
       <defs>
        <path id="DejaVuSans-39" d="M 703 97 
L 703 672 
Q 941 559 1184 500 
Q 1428 441 1663 441 
Q 2288 441 2617 861 
Q 2947 1281 2994 2138 
Q 2813 1869 2534 1725 
Q 2256 1581 1919 1581 
Q 1219 1581 811 2004 
Q 403 2428 403 3163 
Q 403 3881 828 4315 
Q 1253 4750 1959 4750 
Q 2769 4750 3195 4129 
Q 3622 3509 3622 2328 
Q 3622 1225 3098 567 
Q 2575 -91 1691 -91 
Q 1453 -91 1209 -44 
Q 966 3 703 97 
z
M 1959 2075 
Q 2384 2075 2632 2365 
Q 2881 2656 2881 3163 
Q 2881 3666 2632 3958 
Q 2384 4250 1959 4250 
Q 1534 4250 1286 3958 
Q 1038 3666 1038 3163 
Q 1038 2656 1286 2365 
Q 1534 2075 1959 2075 
z
" transform="scale(0.015625)"/>
       </defs>
       <use xlink:href="#DejaVuSans-32"/>
       <use xlink:href="#DejaVuSans-30" x="63.623047"/>
       <use xlink:href="#DejaVuSans-31" x="127.246094"/>
       <use xlink:href="#DejaVuSans-39" x="190.869141"/>
      </g>
     </g>
    </g>
    <g id="xtick_11">
     <g id="line2d_11">
      <path d="M 342.215182 324 
L 342.215182 36 
" clip-path="url(#p5ff9512b12)" style="fill: none; stroke: #ffffff; stroke-width: 0.8; stroke-linecap: round"/>
     </g>
     <g id="text_11">
      <!-- 2020 -->
      <g style="fill: #262626" transform="translate(335.168421 354.368774)rotate(-45)scale(0.1 -0.1)">
       <use xlink:href="#DejaVuSans-32"/>
       <use xlink:href="#DejaVuSans-30" x="63.623047"/>
       <use xlink:href="#DejaVuSans-32" x="127.246094"/>
       <use xlink:href="#DejaVuSans-30" x="190.869141"/>
      </g>
     </g>
    </g>
    <g id="text_12">
     <!-- Year -->
     <g style="fill: #262626" transform="translate(205.8895 367.437773)scale(0.1 -0.1)">
      <defs>
       <path id="DejaVuSans-59" d="M -13 4666 
L 666 4666 
L 1959 2747 
L 3244 4666 
L 3922 4666 
L 2272 2222 
L 2272 0 
L 1638 0 
L 1638 2222 
L -13 4666 
z
" transform="scale(0.015625)"/>
       <path id="DejaVuSans-65" d="M 3597 1894 
L 3597 1613 
L 953 1613 
Q 991 1019 1311 708 
Q 1631 397 2203 397 
Q 2534 397 2845 478 
Q 3156 559 3463 722 
L 3463 178 
Q 3153 47 2828 -22 
Q 2503 -91 2169 -91 
Q 1331 -91 842 396 
Q 353 884 353 1716 
Q 353 2575 817 3079 
Q 1281 3584 2069 3584 
Q 2775 3584 3186 3129 
Q 3597 2675 3597 1894 
z
M 3022 2063 
Q 3016 2534 2758 2815 
Q 2500 3097 2075 3097 
Q 1594 3097 1305 2825 
Q 1016 2553 972 2059 
L 3022 2063 
z
" transform="scale(0.015625)"/>
       <path id="DejaVuSans-61" d="M 2194 1759 
Q 1497 1759 1228 1600 
Q 959 1441 959 1056 
Q 959 750 1161 570 
Q 1363 391 1709 391 
Q 2188 391 2477 730 
Q 2766 1069 2766 1631 
L 2766 1759 
L 2194 1759 
z
M 3341 1997 
L 3341 0 
L 2766 0 
L 2766 531 
Q 2569 213 2275 61 
Q 1981 -91 1556 -91 
Q 1019 -91 701 211 
Q 384 513 384 1019 
Q 384 1609 779 1909 
Q 1175 2209 1959 2209 
L 2766 2209 
L 2766 2266 
Q 2766 2663 2505 2880 
Q 2244 3097 1772 3097 
Q 1472 3097 1187 3025 
Q 903 2953 641 2809 
L 641 3341 
Q 956 3463 1253 3523 
Q 1550 3584 1831 3584 
Q 2591 3584 2966 3190 
Q 3341 2797 3341 1997 
z
" transform="scale(0.015625)"/>
       <path id="DejaVuSans-72" d="M 2631 2963 
Q 2534 3019 2420 3045 
Q 2306 3072 2169 3072 
Q 1681 3072 1420 2755 
Q 1159 2438 1159 1844 
L 1159 0 
L 581 0 
L 581 3500 
L 1159 3500 
L 1159 2956 
Q 1341 3275 1631 3429 
Q 1922 3584 2338 3584 
Q 2397 3584 2469 3576 
Q 2541 3569 2628 3553 
L 2631 2963 
z
" transform="scale(0.015625)"/>
      </defs>
      <use xlink:href="#DejaVuSans-59"/>
      <use xlink:href="#DejaVuSans-65" x="47.833984"/>
      <use xlink:href="#DejaVuSans-61" x="109.357422"/>
      <use xlink:href="#DejaVuSans-72" x="170.636719"/>
     </g>
    </g>
   </g>
   <g id="matplotlib.axis_2">
    <g id="ytick_1">
     <g id="line2d_12">
      <path d="M 78.165 298.381872 
L 354.789 298.381872 
" clip-path="url(#p5ff9512b12)" style="fill: none; stroke: #ffffff; stroke-width: 0.8; stroke-linecap: round"/>
     </g>
     <g id="text_13">
      <!-- −8 -->
      <g style="fill: #262626" transform="translate(56.422813 302.181091)scale(0.1 -0.1)">
       <defs>
        <path id="DejaVuSans-2212" d="M 678 2272 
L 4684 2272 
L 4684 1741 
L 678 1741 
L 678 2272 
z
" transform="scale(0.015625)"/>
       </defs>
       <use xlink:href="#DejaVuSans-2212"/>
       <use xlink:href="#DejaVuSans-38" x="83.789062"/>
      </g>
     </g>
    </g>
    <g id="ytick_2">
     <g id="line2d_13">
      <path d="M 78.165 259.761508 
L 354.789 259.761508 
" clip-path="url(#p5ff9512b12)" style="fill: none; stroke: #ffffff; stroke-width: 0.8; stroke-linecap: round"/>
     </g>
     <g id="text_14">
      <!-- −6 -->
      <g style="fill: #262626" transform="translate(56.422813 263.560727)scale(0.1 -0.1)">
       <use xlink:href="#DejaVuSans-2212"/>
       <use xlink:href="#DejaVuSans-36" x="83.789062"/>
      </g>
     </g>
    </g>
    <g id="ytick_3">
     <g id="line2d_14">
      <path d="M 78.165 221.141145 
L 354.789 221.141145 
" clip-path="url(#p5ff9512b12)" style="fill: none; stroke: #ffffff; stroke-width: 0.8; stroke-linecap: round"/>
     </g>
     <g id="text_15">
      <!-- −4 -->
      <g style="fill: #262626" transform="translate(56.422813 224.940363)scale(0.1 -0.1)">
       <use xlink:href="#DejaVuSans-2212"/>
       <use xlink:href="#DejaVuSans-34" x="83.789062"/>
      </g>
     </g>
    </g>
    <g id="ytick_4">
     <g id="line2d_15">
      <path d="M 78.165 182.520781 
L 354.789 182.520781 
" clip-path="url(#p5ff9512b12)" style="fill: none; stroke: #ffffff; stroke-width: 0.8; stroke-linecap: round"/>
     </g>
     <g id="text_16">
      <!-- −2 -->
      <g style="fill: #262626" transform="translate(56.422813 186.319999)scale(0.1 -0.1)">
       <use xlink:href="#DejaVuSans-2212"/>
       <use xlink:href="#DejaVuSans-32" x="83.789062"/>
      </g>
     </g>
    </g>
    <g id="ytick_5">
     <g id="line2d_16">
      <path d="M 78.165 143.900417 
L 354.789 143.900417 
" clip-path="url(#p5ff9512b12)" style="fill: none; stroke: #ffffff; stroke-width: 0.8; stroke-linecap: round"/>
     </g>
     <g id="text_17">
      <!-- 0 -->
      <g style="fill: #262626" transform="translate(64.8025 147.699636)scale(0.1 -0.1)">
       <use xlink:href="#DejaVuSans-30"/>
      </g>
     </g>
    </g>
    <g id="ytick_6">
     <g id="line2d_17">
      <path d="M 78.165 105.280053 
L 354.789 105.280053 
" clip-path="url(#p5ff9512b12)" style="fill: none; stroke: #ffffff; stroke-width: 0.8; stroke-linecap: round"/>
     </g>
     <g id="text_18">
      <!-- 2 -->
      <g style="fill: #262626" transform="translate(64.8025 109.079272)scale(0.1 -0.1)">
       <use xlink:href="#DejaVuSans-32"/>
      </g>
     </g>
    </g>
    <g id="ytick_7">
     <g id="line2d_18">
      <path d="M 78.165 66.659689 
L 354.789 66.659689 
" clip-path="url(#p5ff9512b12)" style="fill: none; stroke: #ffffff; stroke-width: 0.8; stroke-linecap: round"/>
     </g>
     <g id="text_19">
      <!-- 4 -->
      <g style="fill: #262626" transform="translate(64.8025 70.458908)scale(0.1 -0.1)">
       <use xlink:href="#DejaVuSans-34"/>
      </g>
     </g>
    </g>
    <g id="text_20">
     <!-- Relative change (%) -->
     <g style="fill: #262626" transform="translate(50.343125 230.396094)rotate(-90)scale(0.1 -0.1)">
      <defs>
       <path id="DejaVuSans-52" d="M 2841 2188 
Q 3044 2119 3236 1894 
Q 3428 1669 3622 1275 
L 4263 0 
L 3584 0 
L 2988 1197 
Q 2756 1666 2539 1819 
Q 2322 1972 1947 1972 
L 1259 1972 
L 1259 0 
L 628 0 
L 628 4666 
L 2053 4666 
Q 2853 4666 3247 4331 
Q 3641 3997 3641 3322 
Q 3641 2881 3436 2590 
Q 3231 2300 2841 2188 
z
M 1259 4147 
L 1259 2491 
L 2053 2491 
Q 2509 2491 2742 2702 
Q 2975 2913 2975 3322 
Q 2975 3731 2742 3939 
Q 2509 4147 2053 4147 
L 1259 4147 
z
" transform="scale(0.015625)"/>
       <path id="DejaVuSans-6c" d="M 603 4863 
L 1178 4863 
L 1178 0 
L 603 0 
L 603 4863 
z
" transform="scale(0.015625)"/>
       <path id="DejaVuSans-74" d="M 1172 4494 
L 1172 3500 
L 2356 3500 
L 2356 3053 
L 1172 3053 
L 1172 1153 
Q 1172 725 1289 603 
Q 1406 481 1766 481 
L 2356 481 
L 2356 0 
L 1766 0 
Q 1100 0 847 248 
Q 594 497 594 1153 
L 594 3053 
L 172 3053 
L 172 3500 
L 594 3500 
L 594 4494 
L 1172 4494 
z
" transform="scale(0.015625)"/>
       <path id="DejaVuSans-69" d="M 603 3500 
L 1178 3500 
L 1178 0 
L 603 0 
L 603 3500 
z
M 603 4863 
L 1178 4863 
L 1178 4134 
L 603 4134 
L 603 4863 
z
" transform="scale(0.015625)"/>
       <path id="DejaVuSans-76" d="M 191 3500 
L 800 3500 
L 1894 563 
L 2988 3500 
L 3597 3500 
L 2284 0 
L 1503 0 
L 191 3500 
z
" transform="scale(0.015625)"/>
       <path id="DejaVuSans-20" transform="scale(0.015625)"/>
       <path id="DejaVuSans-63" d="M 3122 3366 
L 3122 2828 
Q 2878 2963 2633 3030 
Q 2388 3097 2138 3097 
Q 1578 3097 1268 2742 
Q 959 2388 959 1747 
Q 959 1106 1268 751 
Q 1578 397 2138 397 
Q 2388 397 2633 464 
Q 2878 531 3122 666 
L 3122 134 
Q 2881 22 2623 -34 
Q 2366 -91 2075 -91 
Q 1284 -91 818 406 
Q 353 903 353 1747 
Q 353 2603 823 3093 
Q 1294 3584 2113 3584 
Q 2378 3584 2631 3529 
Q 2884 3475 3122 3366 
z
" transform="scale(0.015625)"/>
       <path id="DejaVuSans-68" d="M 3513 2113 
L 3513 0 
L 2938 0 
L 2938 2094 
Q 2938 2591 2744 2837 
Q 2550 3084 2163 3084 
Q 1697 3084 1428 2787 
Q 1159 2491 1159 1978 
L 1159 0 
L 581 0 
L 581 4863 
L 1159 4863 
L 1159 2956 
Q 1366 3272 1645 3428 
Q 1925 3584 2291 3584 
Q 2894 3584 3203 3211 
Q 3513 2838 3513 2113 
z
" transform="scale(0.015625)"/>
       <path id="DejaVuSans-6e" d="M 3513 2113 
L 3513 0 
L 2938 0 
L 2938 2094 
Q 2938 2591 2744 2837 
Q 2550 3084 2163 3084 
Q 1697 3084 1428 2787 
Q 1159 2491 1159 1978 
L 1159 0 
L 581 0 
L 581 3500 
L 1159 3500 
L 1159 2956 
Q 1366 3272 1645 3428 
Q 1925 3584 2291 3584 
Q 2894 3584 3203 3211 
Q 3513 2838 3513 2113 
z
" transform="scale(0.015625)"/>
       <path id="DejaVuSans-67" d="M 2906 1791 
Q 2906 2416 2648 2759 
Q 2391 3103 1925 3103 
Q 1463 3103 1205 2759 
Q 947 2416 947 1791 
Q 947 1169 1205 825 
Q 1463 481 1925 481 
Q 2391 481 2648 825 
Q 2906 1169 2906 1791 
z
M 3481 434 
Q 3481 -459 3084 -895 
Q 2688 -1331 1869 -1331 
Q 1566 -1331 1297 -1286 
Q 1028 -1241 775 -1147 
L 775 -588 
Q 1028 -725 1275 -790 
Q 1522 -856 1778 -856 
Q 2344 -856 2625 -561 
Q 2906 -266 2906 331 
L 2906 616 
Q 2728 306 2450 153 
Q 2172 0 1784 0 
Q 1141 0 747 490 
Q 353 981 353 1791 
Q 353 2603 747 3093 
Q 1141 3584 1784 3584 
Q 2172 3584 2450 3431 
Q 2728 3278 2906 2969 
L 2906 3500 
L 3481 3500 
L 3481 434 
z
" transform="scale(0.015625)"/>
       <path id="DejaVuSans-28" d="M 1984 4856 
Q 1566 4138 1362 3434 
Q 1159 2731 1159 2009 
Q 1159 1288 1364 580 
Q 1569 -128 1984 -844 
L 1484 -844 
Q 1016 -109 783 600 
Q 550 1309 550 2009 
Q 550 2706 781 3412 
Q 1013 4119 1484 4856 
L 1984 4856 
z
" transform="scale(0.015625)"/>
       <path id="DejaVuSans-25" d="M 4653 2053 
Q 4381 2053 4226 1822 
Q 4072 1591 4072 1178 
Q 4072 772 4226 539 
Q 4381 306 4653 306 
Q 4919 306 5073 539 
Q 5228 772 5228 1178 
Q 5228 1588 5073 1820 
Q 4919 2053 4653 2053 
z
M 4653 2450 
Q 5147 2450 5437 2106 
Q 5728 1763 5728 1178 
Q 5728 594 5436 251 
Q 5144 -91 4653 -91 
Q 4153 -91 3862 251 
Q 3572 594 3572 1178 
Q 3572 1766 3864 2108 
Q 4156 2450 4653 2450 
z
M 1428 4353 
Q 1159 4353 1004 4120 
Q 850 3888 850 3481 
Q 850 3069 1003 2837 
Q 1156 2606 1428 2606 
Q 1700 2606 1854 2837 
Q 2009 3069 2009 3481 
Q 2009 3884 1853 4118 
Q 1697 4353 1428 4353 
z
M 4250 4750 
L 4750 4750 
L 1831 -91 
L 1331 -91 
L 4250 4750 
z
M 1428 4750 
Q 1922 4750 2215 4408 
Q 2509 4066 2509 3481 
Q 2509 2891 2217 2550 
Q 1925 2209 1428 2209 
Q 931 2209 642 2551 
Q 353 2894 353 3481 
Q 353 4063 643 4406 
Q 934 4750 1428 4750 
z
" transform="scale(0.015625)"/>
       <path id="DejaVuSans-29" d="M 513 4856 
L 1013 4856 
Q 1481 4119 1714 3412 
Q 1947 2706 1947 2009 
Q 1947 1309 1714 600 
Q 1481 -109 1013 -844 
L 513 -844 
Q 928 -128 1133 580 
Q 1338 1288 1338 2009 
Q 1338 2731 1133 3434 
Q 928 4138 513 4856 
z
" transform="scale(0.015625)"/>
      </defs>
      <use xlink:href="#DejaVuSans-52"/>
      <use xlink:href="#DejaVuSans-65" x="64.982422"/>
      <use xlink:href="#DejaVuSans-6c" x="126.505859"/>
      <use xlink:href="#DejaVuSans-61" x="154.289062"/>
      <use xlink:href="#DejaVuSans-74" x="215.568359"/>
      <use xlink:href="#DejaVuSans-69" x="254.777344"/>
      <use xlink:href="#DejaVuSans-76" x="282.560547"/>
      <use xlink:href="#DejaVuSans-65" x="341.740234"/>
      <use xlink:href="#DejaVuSans-20" x="403.263672"/>
      <use xlink:href="#DejaVuSans-63" x="435.050781"/>
      <use xlink:href="#DejaVuSans-68" x="490.03125"/>
      <use xlink:href="#DejaVuSans-61" x="553.410156"/>
      <use xlink:href="#DejaVuSans-6e" x="614.689453"/>
      <use xlink:href="#DejaVuSans-67" x="678.068359"/>
      <use xlink:href="#DejaVuSans-65" x="741.544922"/>
      <use xlink:href="#DejaVuSans-20" x="803.068359"/>
      <use xlink:href="#DejaVuSans-28" x="834.855469"/>
      <use xlink:href="#DejaVuSans-25" x="873.869141"/>
      <use xlink:href="#DejaVuSans-29" x="968.888672"/>
     </g>
    </g>
   </g>
   <g id="PolyCollection_1"/>
   <g id="PolyCollection_2"/>
   <g id="PolyCollection_3"/>
   <g id="PolyCollection_4"/>
   <g id="PolyCollection_5"/>
   <g id="line2d_19">
    <path d="M 90.738818 143.900417 
L 115.886455 201.12273 
L 141.034091 162.913955 
L 166.181727 161.461837 
L 191.329364 197.947869 
L 216.477 132.407195 
L 241.624636 214.586949 
L 266.772273 185.28364 
L 291.919909 209.948954 
L 317.067545 49.090909 
L 342.215182 203.107997 
" clip-path="url(#p5ff9512b12)" style="fill: none; stroke: #a1c9f4; stroke-width: 1.5; stroke-linecap: round"/>
    <defs>
     <path id="m4d1c3ae72b" d="M 0 3 
C 0.795609 3 1.55874 2.683901 2.12132 2.12132 
C 2.683901 1.55874 3 0.795609 3 0 
C 3 -0.795609 2.683901 -1.55874 2.12132 -2.12132 
C 1.55874 -2.683901 0.795609 -3 0 -3 
C -0.795609 -3 -1.55874 -2.683901 -2.12132 -2.12132 
C -2.683901 -1.55874 -3 -0.795609 -3 0 
C -3 0.795609 -2.683901 1.55874 -2.12132 2.12132 
C -1.55874 2.683901 -0.795609 3 0 3 
z
" style="stroke: #ffffff; stroke-width: 0.75"/>
    </defs>
    <g clip-path="url(#p5ff9512b12)">
     <use xlink:href="#m4d1c3ae72b" x="90.738818" y="143.900417" style="fill: #a1c9f4; stroke: #ffffff; stroke-width: 0.75"/>
     <use xlink:href="#m4d1c3ae72b" x="115.886455" y="201.12273" style="fill: #a1c9f4; stroke: #ffffff; stroke-width: 0.75"/>
     <use xlink:href="#m4d1c3ae72b" x="141.034091" y="162.913955" style="fill: #a1c9f4; stroke: #ffffff; stroke-width: 0.75"/>
     <use xlink:href="#m4d1c3ae72b" x="166.181727" y="161.461837" style="fill: #a1c9f4; stroke: #ffffff; stroke-width: 0.75"/>
     <use xlink:href="#m4d1c3ae72b" x="191.329364" y="197.947869" style="fill: #a1c9f4; stroke: #ffffff; stroke-width: 0.75"/>
     <use xlink:href="#m4d1c3ae72b" x="216.477" y="132.407195" style="fill: #a1c9f4; stroke: #ffffff; stroke-width: 0.75"/>
     <use xlink:href="#m4d1c3ae72b" x="241.624636" y="214.586949" style="fill: #a1c9f4; stroke: #ffffff; stroke-width: 0.75"/>
     <use xlink:href="#m4d1c3ae72b" x="266.772273" y="185.28364" style="fill: #a1c9f4; stroke: #ffffff; stroke-width: 0.75"/>
     <use xlink:href="#m4d1c3ae72b" x="291.919909" y="209.948954" style="fill: #a1c9f4; stroke: #ffffff; stroke-width: 0.75"/>
     <use xlink:href="#m4d1c3ae72b" x="317.067545" y="49.090909" style="fill: #a1c9f4; stroke: #ffffff; stroke-width: 0.75"/>
     <use xlink:href="#m4d1c3ae72b" x="342.215182" y="203.107997" style="fill: #a1c9f4; stroke: #ffffff; stroke-width: 0.75"/>
    </g>
   </g>
   <g id="line2d_20">
    <path d="M 90.738818 143.900417 
L 115.886455 148.434077 
L 141.034091 147.024182 
L 166.181727 152.112496 
L 191.329364 152.271051 
L 216.477 153.913752 
L 241.624636 153.473302 
L 266.772273 155.5682 
L 291.919909 163.473694 
L 317.067545 174.264378 
L 342.215182 174.319994 
" clip-path="url(#p5ff9512b12)" style="fill: none; stroke: #ffb482; stroke-width: 1.5; stroke-linecap: round"/>
    <defs>
     <path id="mdd566fea72" d="M 0 3 
C 0.795609 3 1.55874 2.683901 2.12132 2.12132 
C 2.683901 1.55874 3 0.795609 3 0 
C 3 -0.795609 2.683901 -1.55874 2.12132 -2.12132 
C 1.55874 -2.683901 0.795609 -3 0 -3 
C -0.795609 -3 -1.55874 -2.683901 -2.12132 -2.12132 
C -2.683901 -1.55874 -3 -0.795609 -3 0 
C -3 0.795609 -2.683901 1.55874 -2.12132 2.12132 
C -1.55874 2.683901 -0.795609 3 0 3 
z
" style="stroke: #ffffff; stroke-width: 0.75"/>
    </defs>
    <g clip-path="url(#p5ff9512b12)">
     <use xlink:href="#mdd566fea72" x="90.738818" y="143.900417" style="fill: #ffb482; stroke: #ffffff; stroke-width: 0.75"/>
     <use xlink:href="#mdd566fea72" x="115.886455" y="148.434077" style="fill: #ffb482; stroke: #ffffff; stroke-width: 0.75"/>
     <use xlink:href="#mdd566fea72" x="141.034091" y="147.024182" style="fill: #ffb482; stroke: #ffffff; stroke-width: 0.75"/>
     <use xlink:href="#mdd566fea72" x="166.181727" y="152.112496" style="fill: #ffb482; stroke: #ffffff; stroke-width: 0.75"/>
     <use xlink:href="#mdd566fea72" x="191.329364" y="152.271051" style="fill: #ffb482; stroke: #ffffff; stroke-width: 0.75"/>
     <use xlink:href="#mdd566fea72" x="216.477" y="153.913752" style="fill: #ffb482; stroke: #ffffff; stroke-width: 0.75"/>
     <use xlink:href="#mdd566fea72" x="241.624636" y="153.473302" style="fill: #ffb482; stroke: #ffffff; stroke-width: 0.75"/>
     <use xlink:href="#mdd566fea72" x="266.772273" y="155.5682" style="fill: #ffb482; stroke: #ffffff; stroke-width: 0.75"/>
     <use xlink:href="#mdd566fea72" x="291.919909" y="163.473694" style="fill: #ffb482; stroke: #ffffff; stroke-width: 0.75"/>
     <use xlink:href="#mdd566fea72" x="317.067545" y="174.264378" style="fill: #ffb482; stroke: #ffffff; stroke-width: 0.75"/>
     <use xlink:href="#mdd566fea72" x="342.215182" y="174.319994" style="fill: #ffb482; stroke: #ffffff; stroke-width: 0.75"/>
    </g>
   </g>
   <g id="line2d_21">
    <path d="M 90.738818 143.900417 
L 115.886455 157.554988 
L 141.034091 162.156284 
L 166.181727 174.766986 
L 191.329364 173.590123 
L 216.477 174.526563 
L 241.624636 189.079263 
L 266.772273 219.130625 
L 291.919909 202.333233 
L 317.067545 222.051261 
L 342.215182 234.450874 
" clip-path="url(#p5ff9512b12)" style="fill: none; stroke: #8de5a1; stroke-width: 1.5; stroke-linecap: round"/>
    <defs>
     <path id="m269e654017" d="M 0 3 
C 0.795609 3 1.55874 2.683901 2.12132 2.12132 
C 2.683901 1.55874 3 0.795609 3 0 
C 3 -0.795609 2.683901 -1.55874 2.12132 -2.12132 
C 1.55874 -2.683901 0.795609 -3 0 -3 
C -0.795609 -3 -1.55874 -2.683901 -2.12132 -2.12132 
C -2.683901 -1.55874 -3 -0.795609 -3 0 
C -3 0.795609 -2.683901 1.55874 -2.12132 2.12132 
C -1.55874 2.683901 -0.795609 3 0 3 
z
" style="stroke: #ffffff; stroke-width: 0.75"/>
    </defs>
    <g clip-path="url(#p5ff9512b12)">
     <use xlink:href="#m269e654017" x="90.738818" y="143.900417" style="fill: #8de5a1; stroke: #ffffff; stroke-width: 0.75"/>
     <use xlink:href="#m269e654017" x="115.886455" y="157.554988" style="fill: #8de5a1; stroke: #ffffff; stroke-width: 0.75"/>
     <use xlink:href="#m269e654017" x="141.034091" y="162.156284" style="fill: #8de5a1; stroke: #ffffff; stroke-width: 0.75"/>
     <use xlink:href="#m269e654017" x="166.181727" y="174.766986" style="fill: #8de5a1; stroke: #ffffff; stroke-width: 0.75"/>
     <use xlink:href="#m269e654017" x="191.329364" y="173.590123" style="fill: #8de5a1; stroke: #ffffff; stroke-width: 0.75"/>
     <use xlink:href="#m269e654017" x="216.477" y="174.526563" style="fill: #8de5a1; stroke: #ffffff; stroke-width: 0.75"/>
     <use xlink:href="#m269e654017" x="241.624636" y="189.079263" style="fill: #8de5a1; stroke: #ffffff; stroke-width: 0.75"/>
     <use xlink:href="#m269e654017" x="266.772273" y="219.130625" style="fill: #8de5a1; stroke: #ffffff; stroke-width: 0.75"/>
     <use xlink:href="#m269e654017" x="291.919909" y="202.333233" style="fill: #8de5a1; stroke: #ffffff; stroke-width: 0.75"/>
     <use xlink:href="#m269e654017" x="317.067545" y="222.051261" style="fill: #8de5a1; stroke: #ffffff; stroke-width: 0.75"/>
     <use xlink:href="#m269e654017" x="342.215182" y="234.450874" style="fill: #8de5a1; stroke: #ffffff; stroke-width: 0.75"/>
    </g>
   </g>
   <g id="line2d_22">
    <path d="M 90.738818 143.900417 
L 115.886455 144.948701 
L 141.034091 146.113289 
L 166.181727 145.387103 
L 191.329364 147.163761 
L 216.477 146.789947 
L 241.624636 146.087247 
L 266.772273 144.744328 
L 291.919909 145.711207 
L 317.067545 137.730222 
L 342.215182 310.909091 
" clip-path="url(#p5ff9512b12)" style="fill: none; stroke: #ff9f9b; stroke-width: 1.5; stroke-linecap: round"/>
    <defs>
     <path id="m97b47cbd5a" d="M 0 3 
C 0.795609 3 1.55874 2.683901 2.12132 2.12132 
C 2.683901 1.55874 3 0.795609 3 0 
C 3 -0.795609 2.683901 -1.55874 2.12132 -2.12132 
C 1.55874 -2.683901 0.795609 -3 0 -3 
C -0.795609 -3 -1.55874 -2.683901 -2.12132 -2.12132 
C -2.683901 -1.55874 -3 -0.795609 -3 0 
C -3 0.795609 -2.683901 1.55874 -2.12132 2.12132 
C -1.55874 2.683901 -0.795609 3 0 3 
z
" style="stroke: #ffffff; stroke-width: 0.75"/>
    </defs>
    <g clip-path="url(#p5ff9512b12)">
     <use xlink:href="#m97b47cbd5a" x="90.738818" y="143.900417" style="fill: #ff9f9b; stroke: #ffffff; stroke-width: 0.75"/>
     <use xlink:href="#m97b47cbd5a" x="115.886455" y="144.948701" style="fill: #ff9f9b; stroke: #ffffff; stroke-width: 0.75"/>
     <use xlink:href="#m97b47cbd5a" x="141.034091" y="146.113289" style="fill: #ff9f9b; stroke: #ffffff; stroke-width: 0.75"/>
     <use xlink:href="#m97b47cbd5a" x="166.181727" y="145.387103" style="fill: #ff9f9b; stroke: #ffffff; stroke-width: 0.75"/>
     <use xlink:href="#m97b47cbd5a" x="191.329364" y="147.163761" style="fill: #ff9f9b; stroke: #ffffff; stroke-width: 0.75"/>
     <use xlink:href="#m97b47cbd5a" x="216.477" y="146.789947" style="fill: #ff9f9b; stroke: #ffffff; stroke-width: 0.75"/>
     <use xlink:href="#m97b47cbd5a" x="241.624636" y="146.087247" style="fill: #ff9f9b; stroke: #ffffff; stroke-width: 0.75"/>
     <use xlink:href="#m97b47cbd5a" x="266.772273" y="144.744328" style="fill: #ff9f9b; stroke: #ffffff; stroke-width: 0.75"/>
     <use xlink:href="#m97b47cbd5a" x="291.919909" y="145.711207" style="fill: #ff9f9b; stroke: #ffffff; stroke-width: 0.75"/>
     <use xlink:href="#m97b47cbd5a" x="317.067545" y="137.730222" style="fill: #ff9f9b; stroke: #ffffff; stroke-width: 0.75"/>
     <use xlink:href="#m97b47cbd5a" x="342.215182" y="310.909091" style="fill: #ff9f9b; stroke: #ffffff; stroke-width: 0.75"/>
    </g>
   </g>
   <g id="line2d_23">
    <path d="M 90.738818 143.900417 
L 115.886455 155.856252 
L 141.034091 138.026943 
L 166.181727 142.132504 
L 191.329364 144.122406 
L 216.477 141.460928 
L 241.624636 146.025934 
L 266.772273 145.770467 
L 291.919909 154.23966 
L 317.067545 159.080002 
L 342.215182 162.009079 
" clip-path="url(#p5ff9512b12)" style="fill: none; stroke: #d0bbff; stroke-width: 1.5; stroke-linecap: round"/>
    <defs>
     <path id="m7fb2239136" d="M 0 3 
C 0.795609 3 1.55874 2.683901 2.12132 2.12132 
C 2.683901 1.55874 3 0.795609 3 0 
C 3 -0.795609 2.683901 -1.55874 2.12132 -2.12132 
C 1.55874 -2.683901 0.795609 -3 0 -3 
C -0.795609 -3 -1.55874 -2.683901 -2.12132 -2.12132 
C -2.683901 -1.55874 -3 -0.795609 -3 0 
C -3 0.795609 -2.683901 1.55874 -2.12132 2.12132 
C -1.55874 2.683901 -0.795609 3 0 3 
z
" style="stroke: #ffffff; stroke-width: 0.75"/>
    </defs>
    <g clip-path="url(#p5ff9512b12)">
     <use xlink:href="#m7fb2239136" x="90.738818" y="143.900417" style="fill: #d0bbff; stroke: #ffffff; stroke-width: 0.75"/>
     <use xlink:href="#m7fb2239136" x="115.886455" y="155.856252" style="fill: #d0bbff; stroke: #ffffff; stroke-width: 0.75"/>
     <use xlink:href="#m7fb2239136" x="141.034091" y="138.026943" style="fill: #d0bbff; stroke: #ffffff; stroke-width: 0.75"/>
     <use xlink:href="#m7fb2239136" x="166.181727" y="142.132504" style="fill: #d0bbff; stroke: #ffffff; stroke-width: 0.75"/>
     <use xlink:href="#m7fb2239136" x="191.329364" y="144.122406" style="fill: #d0bbff; stroke: #ffffff; stroke-width: 0.75"/>
     <use xlink:href="#m7fb2239136" x="216.477" y="141.460928" style="fill: #d0bbff; stroke: #ffffff; stroke-width: 0.75"/>
     <use xlink:href="#m7fb2239136" x="241.624636" y="146.025934" style="fill: #d0bbff; stroke: #ffffff; stroke-width: 0.75"/>
     <use xlink:href="#m7fb2239136" x="266.772273" y="145.770467" style="fill: #d0bbff; stroke: #ffffff; stroke-width: 0.75"/>
     <use xlink:href="#m7fb2239136" x="291.919909" y="154.23966" style="fill: #d0bbff; stroke: #ffffff; stroke-width: 0.75"/>
     <use xlink:href="#m7fb2239136" x="317.067545" y="159.080002" style="fill: #d0bbff; stroke: #ffffff; stroke-width: 0.75"/>
     <use xlink:href="#m7fb2239136" x="342.215182" y="162.009079" style="fill: #d0bbff; stroke: #ffffff; stroke-width: 0.75"/>
    </g>
   </g>
   <g id="line2d_24"/>
   <g id="line2d_25"/>
   <g id="line2d_26"/>
   <g id="line2d_27"/>
   <g id="line2d_28"/>
   <g id="patch_3">
    <path d="M 78.165 324 
L 78.165 36 
" style="fill: none; stroke: #ffffff; stroke-width: 0.8; stroke-linejoin: miter; stroke-linecap: square"/>
   </g>
   <g id="patch_4">
    <path d="M 78.165 324 
L 354.789 324 
" style="fill: none; stroke: #ffffff; stroke-width: 0.8; stroke-linejoin: miter; stroke-linecap: square"/>
   </g>
  </g>
  <g id="text_21">
   <!-- Vegetation carbon stock dynamics for the top 5 losers  -->
   <g style="fill: #262626" transform="translate(96.11625 16.318125)scale(0.12 -0.12)">
    <defs>
     <path id="DejaVuSans-56" d="M 1831 0 
L 50 4666 
L 709 4666 
L 2188 738 
L 3669 4666 
L 4325 4666 
L 2547 0 
L 1831 0 
z
" transform="scale(0.015625)"/>
     <path id="DejaVuSans-6f" d="M 1959 3097 
Q 1497 3097 1228 2736 
Q 959 2375 959 1747 
Q 959 1119 1226 758 
Q 1494 397 1959 397 
Q 2419 397 2687 759 
Q 2956 1122 2956 1747 
Q 2956 2369 2687 2733 
Q 2419 3097 1959 3097 
z
M 1959 3584 
Q 2709 3584 3137 3096 
Q 3566 2609 3566 1747 
Q 3566 888 3137 398 
Q 2709 -91 1959 -91 
Q 1206 -91 779 398 
Q 353 888 353 1747 
Q 353 2609 779 3096 
Q 1206 3584 1959 3584 
z
" transform="scale(0.015625)"/>
     <path id="DejaVuSans-62" d="M 3116 1747 
Q 3116 2381 2855 2742 
Q 2594 3103 2138 3103 
Q 1681 3103 1420 2742 
Q 1159 2381 1159 1747 
Q 1159 1113 1420 752 
Q 1681 391 2138 391 
Q 2594 391 2855 752 
Q 3116 1113 3116 1747 
z
M 1159 2969 
Q 1341 3281 1617 3432 
Q 1894 3584 2278 3584 
Q 2916 3584 3314 3078 
Q 3713 2572 3713 1747 
Q 3713 922 3314 415 
Q 2916 -91 2278 -91 
Q 1894 -91 1617 61 
Q 1341 213 1159 525 
L 1159 0 
L 581 0 
L 581 4863 
L 1159 4863 
L 1159 2969 
z
" transform="scale(0.015625)"/>
     <path id="DejaVuSans-73" d="M 2834 3397 
L 2834 2853 
Q 2591 2978 2328 3040 
Q 2066 3103 1784 3103 
Q 1356 3103 1142 2972 
Q 928 2841 928 2578 
Q 928 2378 1081 2264 
Q 1234 2150 1697 2047 
L 1894 2003 
Q 2506 1872 2764 1633 
Q 3022 1394 3022 966 
Q 3022 478 2636 193 
Q 2250 -91 1575 -91 
Q 1294 -91 989 -36 
Q 684 19 347 128 
L 347 722 
Q 666 556 975 473 
Q 1284 391 1588 391 
Q 1994 391 2212 530 
Q 2431 669 2431 922 
Q 2431 1156 2273 1281 
Q 2116 1406 1581 1522 
L 1381 1569 
Q 847 1681 609 1914 
Q 372 2147 372 2553 
Q 372 3047 722 3315 
Q 1072 3584 1716 3584 
Q 2034 3584 2315 3537 
Q 2597 3491 2834 3397 
z
" transform="scale(0.015625)"/>
     <path id="DejaVuSans-6b" d="M 581 4863 
L 1159 4863 
L 1159 1991 
L 2875 3500 
L 3609 3500 
L 1753 1863 
L 3688 0 
L 2938 0 
L 1159 1709 
L 1159 0 
L 581 0 
L 581 4863 
z
" transform="scale(0.015625)"/>
     <path id="DejaVuSans-64" d="M 2906 2969 
L 2906 4863 
L 3481 4863 
L 3481 0 
L 2906 0 
L 2906 525 
Q 2725 213 2448 61 
Q 2172 -91 1784 -91 
Q 1150 -91 751 415 
Q 353 922 353 1747 
Q 353 2572 751 3078 
Q 1150 3584 1784 3584 
Q 2172 3584 2448 3432 
Q 2725 3281 2906 2969 
z
M 947 1747 
Q 947 1113 1208 752 
Q 1469 391 1925 391 
Q 2381 391 2643 752 
Q 2906 1113 2906 1747 
Q 2906 2381 2643 2742 
Q 2381 3103 1925 3103 
Q 1469 3103 1208 2742 
Q 947 2381 947 1747 
z
" transform="scale(0.015625)"/>
     <path id="DejaVuSans-79" d="M 2059 -325 
Q 1816 -950 1584 -1140 
Q 1353 -1331 966 -1331 
L 506 -1331 
L 506 -850 
L 844 -850 
Q 1081 -850 1212 -737 
Q 1344 -625 1503 -206 
L 1606 56 
L 191 3500 
L 800 3500 
L 1894 763 
L 2988 3500 
L 3597 3500 
L 2059 -325 
z
" transform="scale(0.015625)"/>
     <path id="DejaVuSans-6d" d="M 3328 2828 
Q 3544 3216 3844 3400 
Q 4144 3584 4550 3584 
Q 5097 3584 5394 3201 
Q 5691 2819 5691 2113 
L 5691 0 
L 5113 0 
L 5113 2094 
Q 5113 2597 4934 2840 
Q 4756 3084 4391 3084 
Q 3944 3084 3684 2787 
Q 3425 2491 3425 1978 
L 3425 0 
L 2847 0 
L 2847 2094 
Q 2847 2600 2669 2842 
Q 2491 3084 2119 3084 
Q 1678 3084 1418 2786 
Q 1159 2488 1159 1978 
L 1159 0 
L 581 0 
L 581 3500 
L 1159 3500 
L 1159 2956 
Q 1356 3278 1631 3431 
Q 1906 3584 2284 3584 
Q 2666 3584 2933 3390 
Q 3200 3197 3328 2828 
z
" transform="scale(0.015625)"/>
     <path id="DejaVuSans-66" d="M 2375 4863 
L 2375 4384 
L 1825 4384 
Q 1516 4384 1395 4259 
Q 1275 4134 1275 3809 
L 1275 3500 
L 2222 3500 
L 2222 3053 
L 1275 3053 
L 1275 0 
L 697 0 
L 697 3053 
L 147 3053 
L 147 3500 
L 697 3500 
L 697 3744 
Q 697 4328 969 4595 
Q 1241 4863 1831 4863 
L 2375 4863 
z
" transform="scale(0.015625)"/>
     <path id="DejaVuSans-70" d="M 1159 525 
L 1159 -1331 
L 581 -1331 
L 581 3500 
L 1159 3500 
L 1159 2969 
Q 1341 3281 1617 3432 
Q 1894 3584 2278 3584 
Q 2916 3584 3314 3078 
Q 3713 2572 3713 1747 
Q 3713 922 3314 415 
Q 2916 -91 2278 -91 
Q 1894 -91 1617 61 
Q 1341 213 1159 525 
z
M 3116 1747 
Q 3116 2381 2855 2742 
Q 2594 3103 2138 3103 
Q 1681 3103 1420 2742 
Q 1159 2381 1159 1747 
Q 1159 1113 1420 752 
Q 1681 391 2138 391 
Q 2594 391 2855 752 
Q 3116 1113 3116 1747 
z
" transform="scale(0.015625)"/>
    </defs>
    <use xlink:href="#DejaVuSans-56"/>
    <use xlink:href="#DejaVuSans-65" x="60.658203"/>
    <use xlink:href="#DejaVuSans-67" x="122.181641"/>
    <use xlink:href="#DejaVuSans-65" x="185.658203"/>
    <use xlink:href="#DejaVuSans-74" x="247.181641"/>
    <use xlink:href="#DejaVuSans-61" x="286.390625"/>
    <use xlink:href="#DejaVuSans-74" x="347.669922"/>
    <use xlink:href="#DejaVuSans-69" x="386.878906"/>
    <use xlink:href="#DejaVuSans-6f" x="414.662109"/>
    <use xlink:href="#DejaVuSans-6e" x="475.84375"/>
    <use xlink:href="#DejaVuSans-20" x="539.222656"/>
    <use xlink:href="#DejaVuSans-63" x="571.009766"/>
    <use xlink:href="#DejaVuSans-61" x="625.990234"/>
    <use xlink:href="#DejaVuSans-72" x="687.269531"/>
    <use xlink:href="#DejaVuSans-62" x="728.382812"/>
    <use xlink:href="#DejaVuSans-6f" x="791.859375"/>
    <use xlink:href="#DejaVuSans-6e" x="853.041016"/>
    <use xlink:href="#DejaVuSans-20" x="916.419922"/>
    <use xlink:href="#DejaVuSans-73" x="948.207031"/>
    <use xlink:href="#DejaVuSans-74" x="1000.306641"/>
    <use xlink:href="#DejaVuSans-6f" x="1039.515625"/>
    <use xlink:href="#DejaVuSans-63" x="1100.697266"/>
    <use xlink:href="#DejaVuSans-6b" x="1155.677734"/>
    <use xlink:href="#DejaVuSans-20" x="1213.587891"/>
    <use xlink:href="#DejaVuSans-64" x="1245.375"/>
    <use xlink:href="#DejaVuSans-79" x="1308.851562"/>
    <use xlink:href="#DejaVuSans-6e" x="1368.03125"/>
    <use xlink:href="#DejaVuSans-61" x="1431.410156"/>
    <use xlink:href="#DejaVuSans-6d" x="1492.689453"/>
    <use xlink:href="#DejaVuSans-69" x="1590.101562"/>
    <use xlink:href="#DejaVuSans-63" x="1617.884766"/>
    <use xlink:href="#DejaVuSans-73" x="1672.865234"/>
    <use xlink:href="#DejaVuSans-20" x="1724.964844"/>
    <use xlink:href="#DejaVuSans-66" x="1756.751953"/>
    <use xlink:href="#DejaVuSans-6f" x="1791.957031"/>
    <use xlink:href="#DejaVuSans-72" x="1853.138672"/>
    <use xlink:href="#DejaVuSans-20" x="1894.251953"/>
    <use xlink:href="#DejaVuSans-74" x="1926.039062"/>
    <use xlink:href="#DejaVuSans-68" x="1965.248047"/>
    <use xlink:href="#DejaVuSans-65" x="2028.626953"/>
    <use xlink:href="#DejaVuSans-20" x="2090.150391"/>
    <use xlink:href="#DejaVuSans-74" x="2121.9375"/>
    <use xlink:href="#DejaVuSans-6f" x="2161.146484"/>
    <use xlink:href="#DejaVuSans-70" x="2222.328125"/>
    <use xlink:href="#DejaVuSans-20" x="2285.804688"/>
    <use xlink:href="#DejaVuSans-35" x="2317.591797"/>
    <use xlink:href="#DejaVuSans-20" x="2381.214844"/>
    <use xlink:href="#DejaVuSans-6c" x="2413.001953"/>
    <use xlink:href="#DejaVuSans-6f" x="2440.785156"/>
    <use xlink:href="#DejaVuSans-73" x="2501.966797"/>
    <use xlink:href="#DejaVuSans-65" x="2554.066406"/>
    <use xlink:href="#DejaVuSans-72" x="2615.589844"/>
    <use xlink:href="#DejaVuSans-73" x="2656.703125"/>
    <use xlink:href="#DejaVuSans-20" x="2708.802734"/>
   </g>
   <!-- 2010-2020 -->
   <g style="fill: #262626" transform="translate(227.845313 29.7555)scale(0.12 -0.12)">
    <defs>
     <path id="DejaVuSans-2d" d="M 313 2009 
L 1997 2009 
L 1997 1497 
L 313 1497 
L 313 2009 
z
" transform="scale(0.015625)"/>
    </defs>
    <use xlink:href="#DejaVuSans-32"/>
    <use xlink:href="#DejaVuSans-30" x="63.623047"/>
    <use xlink:href="#DejaVuSans-31" x="127.246094"/>
    <use xlink:href="#DejaVuSans-30" x="190.869141"/>
    <use xlink:href="#DejaVuSans-2d" x="254.492188"/>
    <use xlink:href="#DejaVuSans-32" x="290.576172"/>
    <use xlink:href="#DejaVuSans-30" x="354.199219"/>
    <use xlink:href="#DejaVuSans-32" x="417.822266"/>
    <use xlink:href="#DejaVuSans-30" x="481.445312"/>
   </g>
  </g>
  <g id="legend_1">
   <g id="text_22">
    <!-- Country -->
    <g style="fill: #262626" transform="translate(415.757031 146.064063)scale(0.1 -0.1)">
     <defs>
      <path id="DejaVuSans-43" d="M 4122 4306 
L 4122 3641 
Q 3803 3938 3442 4084 
Q 3081 4231 2675 4231 
Q 1875 4231 1450 3742 
Q 1025 3253 1025 2328 
Q 1025 1406 1450 917 
Q 1875 428 2675 428 
Q 3081 428 3442 575 
Q 3803 722 4122 1019 
L 4122 359 
Q 3791 134 3420 21 
Q 3050 -91 2638 -91 
Q 1578 -91 968 557 
Q 359 1206 359 2328 
Q 359 3453 968 4101 
Q 1578 4750 2638 4750 
Q 3056 4750 3426 4639 
Q 3797 4528 4122 4306 
z
" transform="scale(0.015625)"/>
      <path id="DejaVuSans-75" d="M 544 1381 
L 544 3500 
L 1119 3500 
L 1119 1403 
Q 1119 906 1312 657 
Q 1506 409 1894 409 
Q 2359 409 2629 706 
Q 2900 1003 2900 1516 
L 2900 3500 
L 3475 3500 
L 3475 0 
L 2900 0 
L 2900 538 
Q 2691 219 2414 64 
Q 2138 -91 1772 -91 
Q 1169 -91 856 284 
Q 544 659 544 1381 
z
M 1991 3584 
L 1991 3584 
z
" transform="scale(0.015625)"/>
     </defs>
     <use xlink:href="#DejaVuSans-43"/>
     <use xlink:href="#DejaVuSans-6f" x="69.824219"/>
     <use xlink:href="#DejaVuSans-75" x="131.005859"/>
     <use xlink:href="#DejaVuSans-6e" x="194.384766"/>
     <use xlink:href="#DejaVuSans-74" x="257.763672"/>
     <use xlink:href="#DejaVuSans-72" x="296.972656"/>
     <use xlink:href="#DejaVuSans-79" x="338.085938"/>
    </g>
   </g>
   <g id="line2d_29">
    <path d="M 359.140625 157.242188 
L 369.140625 157.242188 
L 379.140625 157.242188 
" style="fill: none; stroke: #a1c9f4; stroke-width: 1.5; stroke-linecap: round"/>
   </g>
   <g id="text_23">
    <!-- South Sudan -->
    <g style="fill: #262626" transform="translate(387.140625 160.742188)scale(0.1 -0.1)">
     <defs>
      <path id="DejaVuSans-53" d="M 3425 4513 
L 3425 3897 
Q 3066 4069 2747 4153 
Q 2428 4238 2131 4238 
Q 1616 4238 1336 4038 
Q 1056 3838 1056 3469 
Q 1056 3159 1242 3001 
Q 1428 2844 1947 2747 
L 2328 2669 
Q 3034 2534 3370 2195 
Q 3706 1856 3706 1288 
Q 3706 609 3251 259 
Q 2797 -91 1919 -91 
Q 1588 -91 1214 -16 
Q 841 59 441 206 
L 441 856 
Q 825 641 1194 531 
Q 1563 422 1919 422 
Q 2459 422 2753 634 
Q 3047 847 3047 1241 
Q 3047 1584 2836 1778 
Q 2625 1972 2144 2069 
L 1759 2144 
Q 1053 2284 737 2584 
Q 422 2884 422 3419 
Q 422 4038 858 4394 
Q 1294 4750 2059 4750 
Q 2388 4750 2728 4690 
Q 3069 4631 3425 4513 
z
" transform="scale(0.015625)"/>
     </defs>
     <use xlink:href="#DejaVuSans-53"/>
     <use xlink:href="#DejaVuSans-6f" x="63.476562"/>
     <use xlink:href="#DejaVuSans-75" x="124.658203"/>
     <use xlink:href="#DejaVuSans-74" x="188.037109"/>
     <use xlink:href="#DejaVuSans-68" x="227.246094"/>
     <use xlink:href="#DejaVuSans-20" x="290.625"/>
     <use xlink:href="#DejaVuSans-53" x="322.412109"/>
     <use xlink:href="#DejaVuSans-75" x="385.888672"/>
     <use xlink:href="#DejaVuSans-64" x="449.267578"/>
     <use xlink:href="#DejaVuSans-61" x="512.744141"/>
     <use xlink:href="#DejaVuSans-6e" x="574.023438"/>
    </g>
   </g>
   <g id="line2d_30">
    <path d="M 359.140625 171.920313 
L 369.140625 171.920313 
L 379.140625 171.920313 
" style="fill: none; stroke: #ffb482; stroke-width: 1.5; stroke-linecap: round"/>
   </g>
   <g id="text_24">
    <!-- United States of America -->
    <g style="fill: #262626" transform="translate(387.140625 175.420313)scale(0.1 -0.1)">
     <defs>
      <path id="DejaVuSans-55" d="M 556 4666 
L 1191 4666 
L 1191 1831 
Q 1191 1081 1462 751 
Q 1734 422 2344 422 
Q 2950 422 3222 751 
Q 3494 1081 3494 1831 
L 3494 4666 
L 4128 4666 
L 4128 1753 
Q 4128 841 3676 375 
Q 3225 -91 2344 -91 
Q 1459 -91 1007 375 
Q 556 841 556 1753 
L 556 4666 
z
" transform="scale(0.015625)"/>
      <path id="DejaVuSans-41" d="M 2188 4044 
L 1331 1722 
L 3047 1722 
L 2188 4044 
z
M 1831 4666 
L 2547 4666 
L 4325 0 
L 3669 0 
L 3244 1197 
L 1141 1197 
L 716 0 
L 50 0 
L 1831 4666 
z
" transform="scale(0.015625)"/>
     </defs>
     <use xlink:href="#DejaVuSans-55"/>
     <use xlink:href="#DejaVuSans-6e" x="73.193359"/>
     <use xlink:href="#DejaVuSans-69" x="136.572266"/>
     <use xlink:href="#DejaVuSans-74" x="164.355469"/>
     <use xlink:href="#DejaVuSans-65" x="203.564453"/>
     <use xlink:href="#DejaVuSans-64" x="265.087891"/>
     <use xlink:href="#DejaVuSans-20" x="328.564453"/>
     <use xlink:href="#DejaVuSans-53" x="360.351562"/>
     <use xlink:href="#DejaVuSans-74" x="423.828125"/>
     <use xlink:href="#DejaVuSans-61" x="463.037109"/>
     <use xlink:href="#DejaVuSans-74" x="524.316406"/>
     <use xlink:href="#DejaVuSans-65" x="563.525391"/>
     <use xlink:href="#DejaVuSans-73" x="625.048828"/>
     <use xlink:href="#DejaVuSans-20" x="677.148438"/>
     <use xlink:href="#DejaVuSans-6f" x="708.935547"/>
     <use xlink:href="#DejaVuSans-66" x="770.117188"/>
     <use xlink:href="#DejaVuSans-20" x="805.322266"/>
     <use xlink:href="#DejaVuSans-41" x="837.109375"/>
     <use xlink:href="#DejaVuSans-6d" x="905.517578"/>
     <use xlink:href="#DejaVuSans-65" x="1002.929688"/>
     <use xlink:href="#DejaVuSans-72" x="1064.453125"/>
     <use xlink:href="#DejaVuSans-69" x="1105.566406"/>
     <use xlink:href="#DejaVuSans-63" x="1133.349609"/>
     <use xlink:href="#DejaVuSans-61" x="1188.330078"/>
    </g>
   </g>
   <g id="line2d_31">
    <path d="M 359.140625 186.598438 
L 369.140625 186.598438 
L 379.140625 186.598438 
" style="fill: none; stroke: #8de5a1; stroke-width: 1.5; stroke-linecap: round"/>
   </g>
   <g id="text_25">
    <!-- Paraguay -->
    <g style="fill: #262626" transform="translate(387.140625 190.098438)scale(0.1 -0.1)">
     <defs>
      <path id="DejaVuSans-50" d="M 1259 4147 
L 1259 2394 
L 2053 2394 
Q 2494 2394 2734 2622 
Q 2975 2850 2975 3272 
Q 2975 3691 2734 3919 
Q 2494 4147 2053 4147 
L 1259 4147 
z
M 628 4666 
L 2053 4666 
Q 2838 4666 3239 4311 
Q 3641 3956 3641 3272 
Q 3641 2581 3239 2228 
Q 2838 1875 2053 1875 
L 1259 1875 
L 1259 0 
L 628 0 
L 628 4666 
z
" transform="scale(0.015625)"/>
     </defs>
     <use xlink:href="#DejaVuSans-50"/>
     <use xlink:href="#DejaVuSans-61" x="55.802734"/>
     <use xlink:href="#DejaVuSans-72" x="117.082031"/>
     <use xlink:href="#DejaVuSans-61" x="158.195312"/>
     <use xlink:href="#DejaVuSans-67" x="219.474609"/>
     <use xlink:href="#DejaVuSans-75" x="282.951172"/>
     <use xlink:href="#DejaVuSans-61" x="346.330078"/>
     <use xlink:href="#DejaVuSans-79" x="407.609375"/>
    </g>
   </g>
   <g id="line2d_32">
    <path d="M 359.140625 201.276563 
L 369.140625 201.276563 
L 379.140625 201.276563 
" style="fill: none; stroke: #ff9f9b; stroke-width: 1.5; stroke-linecap: round"/>
   </g>
   <g id="text_26">
    <!-- Pakistan -->
    <g style="fill: #262626" transform="translate(387.140625 204.776563)scale(0.1 -0.1)">
     <use xlink:href="#DejaVuSans-50"/>
     <use xlink:href="#DejaVuSans-61" x="55.802734"/>
     <use xlink:href="#DejaVuSans-6b" x="117.082031"/>
     <use xlink:href="#DejaVuSans-69" x="174.992188"/>
     <use xlink:href="#DejaVuSans-73" x="202.775391"/>
     <use xlink:href="#DejaVuSans-74" x="254.875"/>
     <use xlink:href="#DejaVuSans-61" x="294.083984"/>
     <use xlink:href="#DejaVuSans-6e" x="355.363281"/>
    </g>
   </g>
   <g id="line2d_33">
    <path d="M 359.140625 215.954688 
L 369.140625 215.954688 
L 379.140625 215.954688 
" style="fill: none; stroke: #d0bbff; stroke-width: 1.5; stroke-linecap: round"/>
   </g>
   <g id="text_27">
    <!-- Russian Federation -->
    <g style="fill: #262626" transform="translate(387.140625 219.454688)scale(0.1 -0.1)">
     <defs>
      <path id="DejaVuSans-46" d="M 628 4666 
L 3309 4666 
L 3309 4134 
L 1259 4134 
L 1259 2759 
L 3109 2759 
L 3109 2228 
L 1259 2228 
L 1259 0 
L 628 0 
L 628 4666 
z
" transform="scale(0.015625)"/>
     </defs>
     <use xlink:href="#DejaVuSans-52"/>
     <use xlink:href="#DejaVuSans-75" x="64.982422"/>
     <use xlink:href="#DejaVuSans-73" x="128.361328"/>
     <use xlink:href="#DejaVuSans-73" x="180.460938"/>
     <use xlink:href="#DejaVuSans-69" x="232.560547"/>
     <use xlink:href="#DejaVuSans-61" x="260.34375"/>
     <use xlink:href="#DejaVuSans-6e" x="321.623047"/>
     <use xlink:href="#DejaVuSans-20" x="385.001953"/>
     <use xlink:href="#DejaVuSans-46" x="416.789062"/>
     <use xlink:href="#DejaVuSans-65" x="468.808594"/>
     <use xlink:href="#DejaVuSans-64" x="530.332031"/>
     <use xlink:href="#DejaVuSans-65" x="593.808594"/>
     <use xlink:href="#DejaVuSans-72" x="655.332031"/>
     <use xlink:href="#DejaVuSans-61" x="696.445312"/>
     <use xlink:href="#DejaVuSans-74" x="757.724609"/>
     <use xlink:href="#DejaVuSans-69" x="796.933594"/>
     <use xlink:href="#DejaVuSans-6f" x="824.716797"/>
     <use xlink:href="#DejaVuSans-6e" x="885.898438"/>
    </g>
   </g>
  </g>
 </g>
 <defs>
  <clipPath id="p5ff9512b12">
   <rect x="78.165" y="36" width="276.624" height="288"/>
  </clipPath>
 </defs>
</svg>
